<svg xmlns="http://www.w3.org/2000/svg" viewBox="0 0 500 500"><g id="freepik--background-simple--inject-64"><path d="M437.4,308.6s51.09-57.42,34.85-157.33-99.67-136.73-155-117.49-67.81,52.69-113,71.84-131.06,6-174,70.28,11.88,170.83,81.67,237.63S359.8,438.5,437.4,308.6Z" style="fill:#4DD3CE"></path><path d="M437.4,308.6s51.09-57.42,34.85-157.33-99.67-136.73-155-117.49-67.81,52.69-113,71.84-131.06,6-174,70.28,11.88,170.83,81.67,237.63S359.8,438.5,437.4,308.6Z" style="fill:#fff;opacity:0.8"></path></g><g id="freepik--Clouds--inject-64"><path d="M355.79,79.33H269.34l2.23-3c1.16-1.54,2.93-1.53,4.23-1.53a3.13,3.13,0,0,0,1.58-.2,5.13,5.13,0,0,0,.92-1.29A15.28,15.28,0,0,1,284,67.52c2.56-1.5,5.29-1,7.28-.6s2.85.46,3.1-.46c1-3.69,3.54-7.43,7.62-6.89a25.19,25.19,0,0,1,3.52.82c3.45,1,5.62,1.41,6.56-.79,1.66-3.87,4.79-8.81,12.8-7.09,7.7,1.64,11,10.06,11.24,10.62,1.63,3.52,4.76,3.21,8.38,2.84,3.14-.31,6.38-.64,8.9,1.61C358.72,72.39,356,79,355.92,79Zm-84.45-1h83.78a9.14,9.14,0,0,0-2.44-10c-2.19-1.95-5.21-1.65-8.13-1.35-3.67.36-7.47.75-9.4-3.43v0c0-.08-3.26-8.46-10.51-10S314.6,56.15,313,60c-1.36,3.17-4.61,2.25-7.75,1.36a24.53,24.53,0,0,0-3.38-.79c-4.33-.57-6.09,4.57-6.52,6.16-.52,1.89-2.34,1.55-4.26,1.18s-4.35-.83-6.58.48a14.35,14.35,0,0,0-5.3,5.47A5.68,5.68,0,0,1,278,75.42a3.62,3.62,0,0,1-2.19.4c-1.26,0-2.56,0-3.42,1.13Z" style="fill:#263238"></path><path d="M141,102.34H54.52l2.23-3c1.17-1.55,3-1.54,4.23-1.54a3.17,3.17,0,0,0,1.59-.2,5.82,5.82,0,0,0,.92-1.28,15.2,15.2,0,0,1,5.65-5.82c2.55-1.5,5.28-1,7.27-.6s2.86.46,3.11-.46c1-3.69,3.53-7.43,7.62-6.89a25.53,25.53,0,0,1,3.52.82c3.45,1,5.61,1.41,6.56-.79,1.65-3.87,4.78-8.81,12.8-7.09,7.69,1.64,11,10.06,11.23,10.63,1.64,3.51,4.76,3.2,8.38,2.83,3.14-.31,6.39-.64,8.9,1.61,5.38,4.81,2.6,11.38,2.57,11.45Zm-84.45-1H140.3a9.09,9.09,0,0,0-2.44-10c-2.18-2-5.2-1.66-8.13-1.36-3.67.37-7.46.75-9.39-3.43l0,0c0-.09-3.26-8.47-10.51-10s-10,2.67-11.67,6.51c-1.36,3.17-4.61,2.25-7.75,1.37a25.9,25.9,0,0,0-3.39-.8c-4.33-.57-6.08,4.57-6.52,6.16-.52,1.9-2.33,1.55-4.25,1.18s-4.36-.83-6.58.48a14.39,14.39,0,0,0-5.31,5.47,5.49,5.49,0,0,1-1.17,1.57,3.55,3.55,0,0,1-2.19.4c-1.27,0-2.57,0-3.43,1.14Z" style="fill:#263238"></path><path d="M428.55,133.11H277.9l3.46-4.61c1.93-2.57,4.8-2.56,7.12-2.54a5.5,5.5,0,0,0,3-.43,9.41,9.41,0,0,0,1.72-2.36A26.33,26.33,0,0,1,303,113.1c4.35-2.56,8.87-1.7,12.5-1s5.33.92,5.87-1.08c1.73-6.31,6-12.74,13-11.81a45,45,0,0,1,6.12,1.43c5.39,1.52,10.05,2.84,12-1.61,2.85-6.66,8.24-15.17,22-12.22,13.25,2.84,19.19,17.79,19.44,18.42,3,6.43,8.85,5.84,15.08,5.21,5.43-.54,11-1.11,15.32,2.73,9.23,8.25,4.47,19.54,4.42,19.65Zm-148.65-1h148c.7-1.81,3.68-11.08-4.28-18.21-4-3.54-9.35-3-14.56-2.47-6.31.63-12.83,1.29-16.1-5.8v0c-.06-.15-5.79-15-18.72-17.81s-18,4.76-20.9,11.63c-2.25,5.26-7.79,3.69-13.15,2.18a45.71,45.71,0,0,0-6-1.4c-7.92-1.06-11.07,8.22-11.85,11.09s-3.69,2.43-7,1.79-7.78-1.48-11.8.89a25.52,25.52,0,0,0-9.44,9.72,9.73,9.73,0,0,1-2,2.65c-.86.65-2.13.64-3.61.63-2.19,0-4.68,0-6.31,2.13Z" style="fill:#263238"></path></g><g id="freepik--Plants--inject-64"><path d="M458.34,431.9s.6-1.46.63-1.56c.31-1.12.24-3.48-.86-4.19a1.54,1.54,0,0,0-2.2.66,3.27,3.27,0,0,0,.21,2.71A11.29,11.29,0,0,0,458.34,431.9Z" style="fill:#263238"></path><path d="M435.4,428.46a11.14,11.14,0,0,0,3.16.76s-.3-1.55-.33-1.65c-.37-1.1-1.73-3-3-3a1.55,1.55,0,0,0-1.48,1.76A3.25,3.25,0,0,0,435.4,428.46Z" style="fill:#263238"></path><path d="M435.34,435.14a10.47,10.47,0,0,0,3.22-.09,27.59,27.59,0,0,0,.79,3.57c.2.68.42,1.36.65,2-.15-.3-.29-.56-.31-.59-.65-1-2.47-2.47-3.72-2.12a1.54,1.54,0,0,0-1,2.09,3.25,3.25,0,0,0,2.18,1.63,10.54,10.54,0,0,0,3.13-.08c.09.26.17.52.27.78.43,1.24.88,2.48,1.27,3.71.14.44.27.87.39,1.3l-.27-.51c-.65-1-2.46-2.47-3.72-2.12a1.54,1.54,0,0,0-1,2.09,3.25,3.25,0,0,0,2.18,1.63,10.1,10.1,0,0,0,3-.07c.12.45.23.89.32,1.33s.13.59.17.89.08.6.13.89c.06.58.13,1.16.17,1.72,0,.39.06.76.09,1.13-.13-.43-.41-1.27-.44-1.34-.5-1.06-2.06-2.82-3.36-2.66a1.56,1.56,0,0,0-1.27,1.93,3.25,3.25,0,0,0,1.91,1.93,10.55,10.55,0,0,0,3.18.4c.05.62.08,1.22.11,1.78.07,1.56.09,2.91.08,4h.87c0-1.08-.07-2.45-.18-4,0-.63-.1-1.3-.16-2a16.15,16.15,0,0,0,1.87-.61,12,12,0,0,0,2.37,2c-.3.54-.6,1.06-.89,1.54-.71,1.2-1.37,2.23-1.92,3.07h1c.48-.77,1-1.67,1.59-2.68.31-.54.63-1.13.95-1.74a10.76,10.76,0,0,0,3.14.65,3.22,3.22,0,0,0,2.43-1.21,1.55,1.55,0,0,0-.57-2.23c-1.18-.57-3.23.58-4,1.43-.05,0-.5.64-.78,1l.39-.75c.27-.51.51-1,.78-1.58.13-.27.25-.55.37-.83s.23-.57.35-.87c.25-.67.48-1.38.69-2.09a10.27,10.27,0,0,0,2.92,1.08,3.24,3.24,0,0,0,2.59-.83,1.55,1.55,0,0,0-.23-2.29c-1.08-.74-3.28.09-4.21.8l-1,1c.13-.42.26-.85.37-1.29.32-1.26.61-2.55.9-3.84.09-.39.19-.78.28-1.18a10.74,10.74,0,0,0,3,1.13,3.23,3.23,0,0,0,2.59-.83,1.54,1.54,0,0,0-.23-2.29c-1.07-.74-3.28.09-4.2.8-.07,0-.94.9-1.15,1.12.2-.86.41-1.72.66-2.56a26.56,26.56,0,0,1,1.18-3.32,11.31,11.31,0,0,0,3,1.13,3.24,3.24,0,0,0,2.59-.83,1.54,1.54,0,0,0-.23-2.29c-1.08-.74-3.28.09-4.2.8-.07.05-.73.69-1,1l-.06,0a20.35,20.35,0,0,1,1.78-3.08c.36-.54.75-1,1.13-1.5a10.29,10.29,0,0,0,2.83,1.42,3.25,3.25,0,0,0,2.66-.54,1.56,1.56,0,0,0,0-2.31c-1-.85-3.27-.27-4.26.34-.06,0-.57.43-.94.72l.52-.63c.65-.75,1.29-1.39,1.86-2,.32-.32.62-.6.91-.86a10.47,10.47,0,0,0,3.15,0,3.22,3.22,0,0,0,2.11-1.71,1.54,1.54,0,0,0-1-2.05c-1.27-.31-3,1.26-3.63,2.26-.05.09-.72,1.53-.7,1.53h0l-.89.81c-.58.56-1.24,1.19-1.9,1.92a28.47,28.47,0,0,0-2,2.48,21.27,21.27,0,0,0-1.86,3.06s0,0,0,0c.05-.37.17-1.44.17-1.52,0-1.17-.69-3.42-1.93-3.82a1.55,1.55,0,0,0-2,1.22,3.19,3.19,0,0,0,.93,2.55,10.54,10.54,0,0,0,2.73,1.7,28.29,28.29,0,0,0-1.3,3.41c-.21.68-.41,1.37-.59,2.06,0-.32.07-.62.07-.66,0-1.17-.7-3.42-1.94-3.82a1.54,1.54,0,0,0-1.95,1.22,3.21,3.21,0,0,0,.92,2.55,10.21,10.21,0,0,0,2.65,1.66c-.06.27-.14.54-.2.8-.32,1.28-.64,2.56-1,3.81-.12.44-.26.87-.39,1.29,0-.29.06-.53.06-.57,0-1.17-.7-3.42-1.94-3.82a1.54,1.54,0,0,0-1.95,1.22,3.23,3.23,0,0,0,.92,2.55,10,10,0,0,0,2.57,1.63c-.15.43-.3.87-.47,1.28s-.21.56-.35.83-.26.55-.38.82c-.27.51-.53,1-.8,1.53l-.55,1c.13-.43.36-1.29.37-1.36a6.07,6.07,0,0,0-.43-3,2.06,2.06,0,0,0,0-.35,1.55,1.55,0,0,0-1.71-1.54c-1.29.18-2.37,2.27-2.57,3.42,0,.07-.07.82-.09,1.29,0-.28-.05-.55-.09-.84-.06-.57-.13-1.14-.21-1.75l-.15-.89c0-.3-.13-.61-.19-.91-.17-.71-.36-1.42-.58-2.13a10.43,10.43,0,0,0,3-.72,3.21,3.21,0,0,0,1.7-2.12,1.55,1.55,0,0,0-1.46-1.78c-1.3,0-2.68,1.88-3.06,3,0,.07-.21.89-.3,1.34-.13-.42-.26-.85-.41-1.28-.43-1.23-.9-2.47-1.36-3.7-.15-.38-.28-.76-.42-1.13a10.57,10.57,0,0,0,3.13-.73,3.2,3.2,0,0,0,1.7-2.12,1.54,1.54,0,0,0-1.45-1.78c-1.31,0-2.69,1.88-3.07,3,0,.08-.29,1.26-.34,1.57-.3-.84-.6-1.67-.86-2.5a27.68,27.68,0,0,1-.85-3.43,10.86,10.86,0,0,0,3.16-.73,3.21,3.21,0,0,0,1.7-2.12,1.55,1.55,0,0,0-1.46-1.78c-1.3,0-2.68,1.89-3.06,3,0,.07-.23,1-.31,1.4h-.08a20.55,20.55,0,0,1-.21-3.54c0-.66,0-1.28.11-1.88a10.43,10.43,0,0,0,3.14-.38,3.22,3.22,0,0,0,1.93-1.92,1.55,1.55,0,0,0-1.25-1.93c-1.3-.17-2.88,1.58-3.38,2.63,0,.06-.24.67-.38,1.12,0-.27.05-.55.09-.82.12-1,.3-1.86.46-2.65.1-.45.2-.85.29-1.22a10.32,10.32,0,0,0,2.6-1.78,3.23,3.23,0,0,0,.82-2.59,1.55,1.55,0,0,0-2-1.14c-1.23.45-1.82,2.73-1.78,3.9,0,.1.24,1.66.27,1.65h0q-.15.54-.3,1.17c-.18.78-.38,1.67-.52,2.65a25.24,25.24,0,0,0-.33,3.19,19.81,19.81,0,0,0,.13,3.58.08.08,0,0,1,0,0c-.16-.34-.65-1.3-.69-1.36-.65-1-2.47-2.47-3.72-2.12a1.54,1.54,0,0,0-1,2.09A3.21,3.21,0,0,0,435.34,435.14Z" style="fill:#263238"></path><path d="M435.4,428.46a11.14,11.14,0,0,0,3.16.76s-.3-1.55-.33-1.65c-.37-1.1-1.73-3-3-3a1.55,1.55,0,0,0-1.48,1.76A3.25,3.25,0,0,0,435.4,428.46Z" style="fill:#263238;opacity:0.30000000000000004"></path><path d="M458.34,431.9s.6-1.46.63-1.56c.31-1.12.24-3.48-.86-4.19a1.54,1.54,0,0,0-2.2.66,3.27,3.27,0,0,0,.21,2.71A11.29,11.29,0,0,0,458.34,431.9Z" style="fill:#263238;opacity:0.30000000000000004"></path><path d="M435.34,435.14a10.47,10.47,0,0,0,3.22-.09,27.59,27.59,0,0,0,.79,3.57c.2.68.42,1.36.65,2-.15-.3-.29-.56-.31-.59-.65-1-2.47-2.47-3.72-2.12a1.54,1.54,0,0,0-1,2.09,3.25,3.25,0,0,0,2.18,1.63,10.54,10.54,0,0,0,3.13-.08c.09.26.17.52.27.78.43,1.24.88,2.48,1.27,3.71.14.44.27.87.39,1.3l-.27-.51c-.65-1-2.46-2.47-3.72-2.12a1.54,1.54,0,0,0-1,2.09,3.25,3.25,0,0,0,2.18,1.63,10.1,10.1,0,0,0,3-.07c.12.45.23.89.32,1.33s.13.59.17.89.08.6.13.89c.06.58.13,1.16.17,1.72,0,.39.06.76.09,1.13-.13-.43-.41-1.27-.44-1.34-.5-1.06-2.06-2.82-3.36-2.66a1.56,1.56,0,0,0-1.27,1.93,3.25,3.25,0,0,0,1.91,1.93,10.55,10.55,0,0,0,3.18.4c.05.62.08,1.22.11,1.78.07,1.56.09,2.91.08,4h.87c0-1.08-.07-2.45-.18-4,0-.63-.1-1.3-.16-2a16.15,16.15,0,0,0,1.87-.61,12,12,0,0,0,2.37,2c-.3.54-.6,1.06-.89,1.54-.71,1.2-1.37,2.23-1.92,3.07h1c.48-.77,1-1.67,1.59-2.68.31-.54.63-1.13.95-1.74a10.76,10.76,0,0,0,3.14.65,3.22,3.22,0,0,0,2.43-1.21,1.55,1.55,0,0,0-.57-2.23c-1.18-.57-3.23.58-4,1.43-.05,0-.5.64-.78,1l.39-.75c.27-.51.51-1,.78-1.58.13-.27.25-.55.37-.83s.23-.57.35-.87c.25-.67.48-1.38.69-2.09a10.27,10.27,0,0,0,2.92,1.08,3.24,3.24,0,0,0,2.59-.83,1.55,1.55,0,0,0-.23-2.29c-1.08-.74-3.28.09-4.21.8l-1,1c.13-.42.26-.85.37-1.29.32-1.26.61-2.55.9-3.84.09-.39.19-.78.28-1.18a10.74,10.74,0,0,0,3,1.13,3.23,3.23,0,0,0,2.59-.83,1.54,1.54,0,0,0-.23-2.29c-1.07-.74-3.28.09-4.2.8-.07,0-.94.9-1.15,1.12.2-.86.41-1.72.66-2.56a26.56,26.56,0,0,1,1.18-3.32,11.31,11.31,0,0,0,3,1.13,3.24,3.24,0,0,0,2.59-.83,1.54,1.54,0,0,0-.23-2.29c-1.08-.74-3.28.09-4.2.8-.07.05-.73.69-1,1l-.06,0a20.35,20.35,0,0,1,1.78-3.08c.36-.54.75-1,1.13-1.5a10.29,10.29,0,0,0,2.83,1.42,3.25,3.25,0,0,0,2.66-.54,1.56,1.56,0,0,0,0-2.31c-1-.85-3.27-.27-4.26.34-.06,0-.57.43-.94.72l.52-.63c.65-.75,1.29-1.39,1.86-2,.32-.32.62-.6.91-.86a10.47,10.47,0,0,0,3.15,0,3.22,3.22,0,0,0,2.11-1.71,1.54,1.54,0,0,0-1-2.05c-1.27-.31-3,1.26-3.63,2.26-.05.09-.72,1.53-.7,1.53h0l-.89.81c-.58.56-1.24,1.19-1.9,1.92a28.47,28.47,0,0,0-2,2.48,21.27,21.27,0,0,0-1.86,3.06s0,0,0,0c.05-.37.17-1.44.17-1.52,0-1.17-.69-3.42-1.93-3.82a1.55,1.55,0,0,0-2,1.22,3.19,3.19,0,0,0,.93,2.55,10.54,10.54,0,0,0,2.73,1.7,28.29,28.29,0,0,0-1.3,3.41c-.21.68-.41,1.37-.59,2.06,0-.32.07-.62.07-.66,0-1.17-.7-3.42-1.94-3.82a1.54,1.54,0,0,0-1.95,1.22,3.21,3.21,0,0,0,.92,2.55,10.21,10.21,0,0,0,2.65,1.66c-.06.27-.14.54-.2.8-.32,1.28-.64,2.56-1,3.81-.12.44-.26.87-.39,1.29,0-.29.06-.53.06-.57,0-1.17-.7-3.42-1.94-3.82a1.54,1.54,0,0,0-1.95,1.22,3.23,3.23,0,0,0,.92,2.55,10,10,0,0,0,2.57,1.63c-.15.43-.3.87-.47,1.28s-.21.56-.35.83-.26.55-.38.82c-.27.51-.53,1-.8,1.53l-.55,1c.13-.43.36-1.29.37-1.36a6.07,6.07,0,0,0-.43-3,2.06,2.06,0,0,0,0-.35,1.55,1.55,0,0,0-1.71-1.54c-1.29.18-2.37,2.27-2.57,3.42,0,.07-.07.82-.09,1.29,0-.28-.05-.55-.09-.84-.06-.57-.13-1.14-.21-1.75l-.15-.89c0-.3-.13-.61-.19-.91-.17-.71-.36-1.42-.58-2.13a10.43,10.43,0,0,0,3-.72,3.21,3.21,0,0,0,1.7-2.12,1.55,1.55,0,0,0-1.46-1.78c-1.3,0-2.68,1.88-3.06,3,0,.07-.21.89-.3,1.34-.13-.42-.26-.85-.41-1.28-.43-1.23-.9-2.47-1.36-3.7-.15-.38-.28-.76-.42-1.13a10.57,10.57,0,0,0,3.13-.73,3.2,3.2,0,0,0,1.7-2.12,1.54,1.54,0,0,0-1.45-1.78c-1.31,0-2.69,1.88-3.07,3,0,.08-.29,1.26-.34,1.57-.3-.84-.6-1.67-.86-2.5a27.68,27.68,0,0,1-.85-3.43,10.86,10.86,0,0,0,3.16-.73,3.21,3.21,0,0,0,1.7-2.12,1.55,1.55,0,0,0-1.46-1.78c-1.3,0-2.68,1.89-3.06,3,0,.07-.23,1-.31,1.4h-.08a20.55,20.55,0,0,1-.21-3.54c0-.66,0-1.28.11-1.88a10.43,10.43,0,0,0,3.14-.38,3.22,3.22,0,0,0,1.93-1.92,1.55,1.55,0,0,0-1.25-1.93c-1.3-.17-2.88,1.58-3.38,2.63,0,.06-.24.67-.38,1.12,0-.27.05-.55.09-.82.12-1,.3-1.86.46-2.65.1-.45.2-.85.29-1.22a10.32,10.32,0,0,0,2.6-1.78,3.23,3.23,0,0,0,.82-2.59,1.55,1.55,0,0,0-2-1.14c-1.23.45-1.82,2.73-1.78,3.9,0,.1.24,1.66.27,1.65h0q-.15.54-.3,1.17c-.18.78-.38,1.67-.52,2.65a25.24,25.24,0,0,0-.33,3.19,19.81,19.81,0,0,0,.13,3.58.08.08,0,0,1,0,0c-.16-.34-.65-1.3-.69-1.36-.65-1-2.47-2.47-3.72-2.12a1.54,1.54,0,0,0-1,2.09A3.21,3.21,0,0,0,435.34,435.14Z" style="fill:#263238;opacity:0.30000000000000004"></path><path d="M68,432.4s-.6-1.43-.63-1.53c-.3-1.11-.23-3.42.85-4.12a1.52,1.52,0,0,1,2.16.65,3.15,3.15,0,0,1-.21,2.66A10.93,10.93,0,0,1,68,432.4Z" style="fill:#263238"></path><path d="M90.49,429a11.15,11.15,0,0,1-3.11.75s.29-1.53.32-1.62c.36-1.09,1.7-3,3-3a1.51,1.51,0,0,1,1.45,1.73A3.2,3.2,0,0,1,90.49,429Z" style="fill:#263238"></path><path d="M90.54,435.59a10.74,10.74,0,0,1-3.16-.09,26.55,26.55,0,0,1-.78,3.5c-.19.67-.41,1.34-.63,2l.3-.58c.63-.95,2.42-2.42,3.66-2.08a1.53,1.53,0,0,1,.94,2.06A3.17,3.17,0,0,1,88.72,442a9.87,9.87,0,0,1-3.07-.07c-.09.25-.17.51-.26.76-.43,1.23-.87,2.45-1.26,3.66-.13.42-.25.85-.38,1.27l.27-.5c.63-1,2.42-2.43,3.65-2.08a1.52,1.52,0,0,1,1,2.05,3.21,3.21,0,0,1-2.15,1.6,9.78,9.78,0,0,1-3-.07c-.11.44-.22.88-.31,1.31s-.12.57-.16.87-.09.59-.13.88c-.06.56-.13,1.14-.17,1.69,0,.38-.06.74-.09,1.11.13-.43.41-1.25.44-1.32.48-1,2-2.77,3.3-2.61a1.51,1.51,0,0,1,1.24,1.89,3.18,3.18,0,0,1-1.88,1.9,10.39,10.39,0,0,1-3.12.39c0,.61-.08,1.2-.1,1.75-.07,1.53-.09,2.86-.09,3.91h-.84c0-1.06.06-2.4.17-3.95,0-.62.1-1.27.16-1.95a16.82,16.82,0,0,1-1.85-.59,11.69,11.69,0,0,1-2.32,2c.3.53.59,1,.88,1.52.7,1.17,1.34,2.18,1.88,3h-1c-.47-.76-1-1.64-1.56-2.63-.31-.54-.62-1.12-.94-1.71a10.41,10.41,0,0,1-3.08.64,3.21,3.21,0,0,1-2.39-1.2,1.51,1.51,0,0,1,.56-2.18c1.16-.56,3.18.57,4,1.4,0,.05.49.63.77,1-.13-.25-.26-.48-.39-.74-.26-.5-.5-1-.77-1.55l-.36-.81c-.12-.27-.22-.57-.34-.85-.25-.67-.47-1.36-.68-2.06a9.92,9.92,0,0,1-2.87,1.06,3.18,3.18,0,0,1-2.54-.82,1.52,1.52,0,0,1,.22-2.25c1.06-.72,3.23.09,4.14.79l1,.94c-.12-.42-.25-.84-.36-1.27-.32-1.24-.6-2.51-.89-3.77l-.27-1.16a10.7,10.7,0,0,1-3,1.11,3.19,3.19,0,0,1-2.55-.82,1.52,1.52,0,0,1,.23-2.25c1.06-.73,3.22.09,4.13.79.07.05.93.88,1.13,1.1-.2-.85-.41-1.69-.64-2.52a27.28,27.28,0,0,0-1.17-3.26,10.74,10.74,0,0,1-3,1.11,3.14,3.14,0,0,1-2.54-.82,1.51,1.51,0,0,1,.23-2.24c1-.73,3.22.08,4.13.78.06.05.71.68,1,1l.06-.05a19.21,19.21,0,0,0-1.74-3c-.36-.53-.74-1-1.11-1.48a10.22,10.22,0,0,1-2.78,1.4,3.17,3.17,0,0,1-2.62-.54,1.52,1.52,0,0,1,0-2.26c1-.84,3.21-.26,4.19.33.06,0,.56.42.92.71l-.51-.62c-.64-.73-1.26-1.36-1.82-1.92l-.9-.85a10.08,10.08,0,0,1-3.09,0,3.15,3.15,0,0,1-2.08-1.68,1.52,1.52,0,0,1,1-2c1.25-.29,3,1.25,3.57,2.23,0,.08.71,1.5.68,1.5h0l.88.8c.58.55,1.22,1.17,1.87,1.89a25.7,25.7,0,0,1,2,2.43A19.27,19.27,0,0,1,71,437v0c0-.37-.17-1.42-.17-1.5,0-1.14.68-3.36,1.9-3.75A1.52,1.52,0,0,1,74.7,433a3.17,3.17,0,0,1-.9,2.51,10.75,10.75,0,0,1-2.69,1.67,28.35,28.35,0,0,1,1.28,3.35c.21.66.4,1.34.58,2,0-.32-.07-.61-.07-.65,0-1.15.68-3.36,1.9-3.75a1.52,1.52,0,0,1,1.92,1.19,3.15,3.15,0,0,1-.91,2.51,10,10,0,0,1-2.6,1.64c.06.26.13.52.2.78.32,1.26.63,2.52,1,3.74.12.43.25.85.39,1.27,0-.29-.06-.53-.06-.56,0-1.15.68-3.36,1.9-3.76a1.52,1.52,0,0,1,1.92,1.2,3.17,3.17,0,0,1-.91,2.51,9.55,9.55,0,0,1-2.53,1.6c.15.42.3.85.46,1.26s.22.55.35.82l.38.8c.26.5.52,1,.78,1.5s.37.66.54,1c-.12-.43-.35-1.27-.36-1.35a6,6,0,0,1,.42-2.94c0-.11,0-.23,0-.34a1.52,1.52,0,0,1,1.68-1.51c1.27.17,2.33,2.23,2.53,3.36,0,.06.06.8.09,1.26,0-.27,0-.54.08-.82.06-.56.14-1.12.21-1.72l.15-.88c0-.29.13-.59.19-.89.16-.7.35-1.4.56-2.1a9.63,9.63,0,0,1-3-.7,3.17,3.17,0,0,1-1.67-2.08,1.51,1.51,0,0,1,1.43-1.75c1.28,0,2.64,1.85,3,2.93,0,.07.2.88.29,1.32.13-.42.26-.83.41-1.25.42-1.22.88-2.43,1.33-3.64l.42-1.12a10.2,10.2,0,0,1-3.09-.71,3.2,3.2,0,0,1-1.67-2.08,1.53,1.53,0,0,1,1.43-1.75c1.29,0,2.64,1.85,3,2.93,0,.09.28,1.25.33,1.55.3-.82.59-1.64.85-2.46a26.28,26.28,0,0,0,.83-3.37,10.31,10.31,0,0,1-3.1-.71,3.17,3.17,0,0,1-1.67-2.08A1.51,1.51,0,0,1,83.74,431c1.28,0,2.64,1.85,3,2.93,0,.07.22,1,.31,1.38h.07a19.87,19.87,0,0,0,.21-3.48c0-.64,0-1.26-.11-1.85a10.39,10.39,0,0,1-3.09-.37,3.21,3.21,0,0,1-1.89-1.89,1.53,1.53,0,0,1,1.23-1.9c1.27-.16,2.83,1.55,3.32,2.59l.38,1.1-.09-.8c-.13-1-.3-1.84-.46-2.61-.1-.44-.19-.83-.28-1.2a10.46,10.46,0,0,1-2.56-1.74,3.17,3.17,0,0,1-.8-2.55,1.52,1.52,0,0,1,2-1.12c1.21.44,1.79,2.68,1.75,3.83,0,.1-.24,1.64-.26,1.63l0,0c.1.36.2.74.3,1.15.18.77.37,1.65.52,2.61a28.49,28.49,0,0,1,.32,3.13,20.12,20.12,0,0,1-.14,3.52v0c.16-.34.63-1.28.68-1.34.63-1,2.42-2.43,3.65-2.08a1.52,1.52,0,0,1,1,2.05A3.21,3.21,0,0,1,90.54,435.59Z" style="fill:#263238"></path><path d="M90.49,429a11.15,11.15,0,0,1-3.11.75s.29-1.53.32-1.62c.36-1.09,1.7-3,3-3a1.51,1.51,0,0,1,1.45,1.73A3.2,3.2,0,0,1,90.49,429Z" style="fill:#263238;opacity:0.30000000000000004"></path><path d="M68,432.4s-.6-1.43-.63-1.53c-.3-1.11-.23-3.42.85-4.12a1.52,1.52,0,0,1,2.16.65,3.15,3.15,0,0,1-.21,2.66A10.93,10.93,0,0,1,68,432.4Z" style="fill:#263238;opacity:0.30000000000000004"></path><path d="M90.54,435.59a10.74,10.74,0,0,1-3.16-.09,26.55,26.55,0,0,1-.78,3.5c-.19.67-.41,1.34-.63,2l.3-.58c.63-.95,2.42-2.42,3.66-2.08a1.53,1.53,0,0,1,.94,2.06A3.17,3.17,0,0,1,88.72,442a9.87,9.87,0,0,1-3.07-.07c-.09.25-.17.51-.26.76-.43,1.23-.87,2.45-1.26,3.66-.13.42-.25.85-.38,1.27l.27-.5c.63-1,2.42-2.43,3.65-2.08a1.52,1.52,0,0,1,1,2.05,3.21,3.21,0,0,1-2.15,1.6,9.78,9.78,0,0,1-3-.07c-.11.44-.22.88-.31,1.31s-.12.57-.16.87-.09.59-.13.88c-.06.56-.13,1.14-.17,1.69,0,.38-.06.74-.09,1.11.13-.43.41-1.25.44-1.32.48-1,2-2.77,3.3-2.61a1.51,1.51,0,0,1,1.24,1.89,3.18,3.18,0,0,1-1.88,1.9,10.39,10.39,0,0,1-3.12.39c0,.61-.08,1.2-.1,1.75-.07,1.53-.09,2.86-.09,3.91h-.84c0-1.06.06-2.4.17-3.95,0-.62.1-1.27.16-1.95a16.82,16.82,0,0,1-1.85-.59,11.69,11.69,0,0,1-2.32,2c.3.53.59,1,.88,1.52.7,1.17,1.34,2.18,1.88,3h-1c-.47-.76-1-1.64-1.56-2.63-.31-.54-.62-1.12-.94-1.71a10.41,10.41,0,0,1-3.08.64,3.21,3.21,0,0,1-2.39-1.2,1.51,1.51,0,0,1,.56-2.18c1.16-.56,3.18.57,4,1.4,0,.05.49.63.77,1-.13-.25-.26-.48-.39-.74-.26-.5-.5-1-.77-1.55l-.36-.81c-.12-.27-.22-.57-.34-.85-.25-.67-.47-1.36-.68-2.06a9.92,9.92,0,0,1-2.87,1.06,3.18,3.18,0,0,1-2.54-.82,1.52,1.52,0,0,1,.22-2.25c1.06-.72,3.23.09,4.14.79l1,.94c-.12-.42-.25-.84-.36-1.27-.32-1.24-.6-2.51-.89-3.77l-.27-1.16a10.7,10.7,0,0,1-3,1.11,3.19,3.19,0,0,1-2.55-.82,1.52,1.52,0,0,1,.23-2.25c1.06-.73,3.22.09,4.13.79.07.05.93.88,1.13,1.1-.2-.85-.41-1.69-.64-2.52a27.28,27.28,0,0,0-1.17-3.26,10.74,10.74,0,0,1-3,1.11,3.14,3.14,0,0,1-2.54-.82,1.51,1.51,0,0,1,.23-2.24c1-.73,3.22.08,4.13.78.06.05.71.68,1,1l.06-.05a19.21,19.21,0,0,0-1.74-3c-.36-.53-.74-1-1.11-1.48a10.22,10.22,0,0,1-2.78,1.4,3.17,3.17,0,0,1-2.62-.54,1.52,1.52,0,0,1,0-2.26c1-.84,3.21-.26,4.19.33.06,0,.56.42.92.71l-.51-.62c-.64-.73-1.26-1.36-1.82-1.92l-.9-.85a10.08,10.08,0,0,1-3.09,0,3.15,3.15,0,0,1-2.08-1.68,1.52,1.52,0,0,1,1-2c1.25-.29,3,1.25,3.57,2.23,0,.08.71,1.5.68,1.5h0l.88.8c.58.55,1.22,1.17,1.87,1.89a25.7,25.7,0,0,1,2,2.43A19.27,19.27,0,0,1,71,437v0c0-.37-.17-1.42-.17-1.5,0-1.14.68-3.36,1.9-3.75A1.52,1.52,0,0,1,74.7,433a3.17,3.17,0,0,1-.9,2.51,10.75,10.75,0,0,1-2.69,1.67,28.35,28.35,0,0,1,1.28,3.35c.21.66.4,1.34.58,2,0-.32-.07-.61-.07-.65,0-1.15.68-3.36,1.9-3.75a1.52,1.52,0,0,1,1.92,1.19,3.15,3.15,0,0,1-.91,2.51,10,10,0,0,1-2.6,1.64c.06.26.13.52.2.78.32,1.26.63,2.52,1,3.74.12.43.25.85.39,1.27,0-.29-.06-.53-.06-.56,0-1.15.68-3.36,1.9-3.76a1.52,1.52,0,0,1,1.92,1.2,3.17,3.17,0,0,1-.91,2.51,9.55,9.55,0,0,1-2.53,1.6c.15.42.3.85.46,1.26s.22.55.35.82l.38.8c.26.5.52,1,.78,1.5s.37.66.54,1c-.12-.43-.35-1.27-.36-1.35a6,6,0,0,1,.42-2.94c0-.11,0-.23,0-.34a1.52,1.52,0,0,1,1.68-1.51c1.27.17,2.33,2.23,2.53,3.36,0,.06.06.8.09,1.26,0-.27,0-.54.08-.82.06-.56.14-1.12.21-1.72l.15-.88c0-.29.13-.59.19-.89.16-.7.35-1.4.56-2.1a9.63,9.63,0,0,1-3-.7,3.17,3.17,0,0,1-1.67-2.08,1.51,1.51,0,0,1,1.43-1.75c1.28,0,2.64,1.85,3,2.93,0,.07.2.88.29,1.32.13-.42.26-.83.41-1.25.42-1.22.88-2.43,1.33-3.64l.42-1.12a10.2,10.2,0,0,1-3.09-.71,3.2,3.2,0,0,1-1.67-2.08,1.53,1.53,0,0,1,1.43-1.75c1.29,0,2.64,1.85,3,2.93,0,.09.28,1.25.33,1.55.3-.82.59-1.64.85-2.46a26.28,26.28,0,0,0,.83-3.37,10.31,10.31,0,0,1-3.1-.71,3.17,3.17,0,0,1-1.67-2.08A1.51,1.51,0,0,1,83.74,431c1.28,0,2.64,1.85,3,2.93,0,.07.22,1,.31,1.38h.07a19.87,19.87,0,0,0,.21-3.48c0-.64,0-1.26-.11-1.85a10.39,10.39,0,0,1-3.09-.37,3.21,3.21,0,0,1-1.89-1.89,1.53,1.53,0,0,1,1.23-1.9c1.27-.16,2.83,1.55,3.32,2.59l.38,1.1-.09-.8c-.13-1-.3-1.84-.46-2.61-.1-.44-.19-.83-.28-1.2a10.46,10.46,0,0,1-2.56-1.74,3.17,3.17,0,0,1-.8-2.55,1.52,1.52,0,0,1,2-1.12c1.21.44,1.79,2.68,1.75,3.83,0,.1-.24,1.64-.26,1.63l0,0c.1.36.2.74.3,1.15.18.77.37,1.65.52,2.61a28.49,28.49,0,0,1,.32,3.13,20.12,20.12,0,0,1-.14,3.52v0c.16-.34.63-1.28.68-1.34.63-1,2.42-2.43,3.65-2.08a1.52,1.52,0,0,1,1,2.05A3.21,3.21,0,0,1,90.54,435.59Z" style="fill:#263238;opacity:0.30000000000000004"></path><path d="M109.62,443.42s.36-.87.38-.93c.18-.67.14-2.07-.51-2.5a.94.94,0,0,0-1.32.39,2,2,0,0,0,.13,1.62A6.76,6.76,0,0,0,109.62,443.42Z" style="fill:#263238"></path><path d="M96,441.37a6.59,6.59,0,0,0,1.88.45s-.18-.92-.2-1c-.21-.66-1-1.81-1.8-1.8a.92.92,0,0,0-.88,1A1.92,1.92,0,0,0,96,441.37Z" style="fill:#263238"></path><path d="M95.92,445.35a6.15,6.15,0,0,0,1.92-.06,18.06,18.06,0,0,0,.47,2.13c.12.4.25.81.39,1.21-.09-.17-.17-.33-.19-.35-.38-.58-1.46-1.47-2.21-1.26a.92.92,0,0,0-.57,1.25,1.92,1.92,0,0,0,1.3,1,6.23,6.23,0,0,0,1.86,0c0,.15.1.31.16.46.26.74.52,1.48.76,2.21.08.26.16.52.23.78l-.16-.31c-.39-.58-1.47-1.47-2.22-1.26a.93.93,0,0,0-.57,1.25,1.92,1.92,0,0,0,1.3,1,5.66,5.66,0,0,0,1.81,0c.07.27.14.54.19.8s.08.35.1.53.05.35.08.53c0,.34.07.69.1,1l.06.67c-.08-.25-.25-.75-.27-.8-.29-.63-1.23-1.67-2-1.58a.92.92,0,0,0-.75,1.15,1.91,1.91,0,0,0,1.14,1.15,6.2,6.2,0,0,0,1.89.24c0,.36.05.72.06,1.06,0,.93,0,1.73,0,2.37h.52c0-.65,0-1.46-.11-2.4,0-.37-.06-.77-.1-1.18a7.8,7.8,0,0,0,1.12-.36,6.75,6.75,0,0,0,1.41,1.19l-.53.92c-.42.71-.82,1.33-1.14,1.83h.59c.29-.46.61-1,1-1.6l.57-1a6.48,6.48,0,0,0,1.86.38,1.9,1.9,0,0,0,1.45-.72.91.91,0,0,0-.34-1.33c-.7-.34-1.92.35-2.4.85l-.47.62.24-.45.46-.94.22-.49c.08-.16.14-.34.21-.52.15-.4.28-.82.41-1.24a6.35,6.35,0,0,0,1.74.64,1.92,1.92,0,0,0,1.54-.5.92.92,0,0,0-.14-1.36c-.64-.44-2,.05-2.5.48,0,0-.4.37-.59.56.07-.25.15-.51.22-.77.19-.75.36-1.52.53-2.28.06-.24.11-.47.17-.7a6.54,6.54,0,0,0,1.79.67,1.94,1.94,0,0,0,1.55-.5.92.92,0,0,0-.14-1.36c-.64-.44-2,0-2.5.48,0,0-.57.53-.69.66.12-.51.25-1,.39-1.52a15.45,15.45,0,0,1,.71-2,6.5,6.5,0,0,0,1.8.67,1.9,1.9,0,0,0,1.54-.49.92.92,0,0,0-.13-1.36c-.64-.45-2,.05-2.51.47,0,0-.43.41-.61.6l0,0a12,12,0,0,1,1.06-1.83c.22-.32.45-.61.67-.89a6.45,6.45,0,0,0,1.69.84,1.92,1.92,0,0,0,1.58-.32.92.92,0,0,0,0-1.37c-.59-.51-2-.16-2.54.2,0,0-.34.25-.56.43l.31-.38c.38-.44.76-.83,1.1-1.16l.55-.52a6.2,6.2,0,0,0,1.87,0,1.91,1.91,0,0,0,1.26-1,.91.91,0,0,0-.62-1.22c-.76-.18-1.8.75-2.16,1.34,0,.06-.43.91-.42.92h0c-.17.14-.34.3-.53.48-.35.33-.74.71-1.13,1.14a17.52,17.52,0,0,0-1.22,1.48,12.37,12.37,0,0,0-1.1,1.82v0c0-.23.1-.86.1-.91,0-.7-.41-2-1.15-2.27a.91.91,0,0,0-1.16.72,1.89,1.89,0,0,0,.55,1.52,6.36,6.36,0,0,0,1.62,1,18.3,18.3,0,0,0-.77,2c-.13.4-.24.81-.35,1.22,0-.19,0-.37,0-.39,0-.7-.41-2-1.15-2.28a.93.93,0,0,0-1.17.73,1.94,1.94,0,0,0,.55,1.52,6.1,6.1,0,0,0,1.58,1l-.12.47c-.19.77-.38,1.53-.59,2.27-.07.26-.15.52-.23.77,0-.17,0-.32,0-.34,0-.7-.41-2-1.15-2.28a.92.92,0,0,0-1.16.73,1.89,1.89,0,0,0,.55,1.52,6,6,0,0,0,1.53,1c-.09.26-.18.52-.28.76s-.13.34-.21.5-.15.32-.23.49l-.48.91-.32.59c.07-.26.21-.77.22-.82a3.52,3.52,0,0,0-.26-1.78.74.74,0,0,0,0-.21.91.91,0,0,0-1-.91c-.77.1-1.41,1.35-1.54,2,0,0,0,.49,0,.77,0-.17,0-.33,0-.5,0-.34-.08-.68-.13-1l-.09-.53c0-.18-.07-.36-.11-.55-.1-.42-.22-.84-.34-1.27a6.06,6.06,0,0,0,1.8-.42,1.9,1.9,0,0,0,1-1.26.92.92,0,0,0-.87-1.07c-.77,0-1.6,1.13-1.82,1.78l-.18.8c-.08-.25-.15-.5-.24-.76-.26-.73-.54-1.47-.81-2.2-.09-.23-.17-.45-.25-.68a6.48,6.48,0,0,0,1.86-.43,2,2,0,0,0,1-1.26.92.92,0,0,0-.87-1.06c-.78,0-1.6,1.12-1.83,1.78,0,0-.17.75-.2.93-.18-.5-.36-1-.51-1.49a15.21,15.21,0,0,1-.51-2,6.31,6.31,0,0,0,1.88-.43,1.9,1.9,0,0,0,1-1.26.92.92,0,0,0-.86-1.07c-.78,0-1.6,1.13-1.83,1.78,0,.05-.13.58-.18.84H98a12.78,12.78,0,0,1-.13-2.11c0-.39,0-.76.07-1.12a6.23,6.23,0,0,0,1.87-.23,1.93,1.93,0,0,0,1.15-1.14.92.92,0,0,0-.75-1.15c-.77-.1-1.71.94-2,1.57,0,0-.14.4-.22.67,0-.17,0-.34,0-.49.08-.58.18-1.11.28-1.58,0-.27.11-.51.17-.73A6.4,6.4,0,0,0,100,437.8a2,2,0,0,0,.49-1.54.93.93,0,0,0-1.2-.68c-.73.27-1.08,1.63-1.06,2.32,0,.06.15,1,.16,1h0c-.06.21-.12.44-.18.7a15.82,15.82,0,0,0-.31,1.58,15.22,15.22,0,0,0-.2,1.89,12,12,0,0,0,.08,2.14v0c-.1-.2-.39-.77-.42-.81-.38-.58-1.47-1.47-2.21-1.26a.91.91,0,0,0-.57,1.24A1.91,1.91,0,0,0,95.92,445.35Z" style="fill:#263238"></path><path d="M96,441.37a6.59,6.59,0,0,0,1.88.45s-.18-.92-.2-1c-.21-.66-1-1.81-1.8-1.8a.92.92,0,0,0-.88,1A1.92,1.92,0,0,0,96,441.37Z" style="fill:#263238;opacity:0.30000000000000004"></path><path d="M109.62,443.42s.36-.87.38-.93c.18-.67.14-2.07-.51-2.5a.94.94,0,0,0-1.32.39,2,2,0,0,0,.13,1.62A6.76,6.76,0,0,0,109.62,443.42Z" style="fill:#263238;opacity:0.30000000000000004"></path><path d="M95.92,445.35a6.15,6.15,0,0,0,1.92-.06,18.06,18.06,0,0,0,.47,2.13c.12.4.25.81.39,1.21-.09-.17-.17-.33-.19-.35-.38-.58-1.46-1.47-2.21-1.26a.92.92,0,0,0-.57,1.25,1.92,1.92,0,0,0,1.3,1,6.23,6.23,0,0,0,1.86,0c0,.15.1.31.16.46.26.74.52,1.48.76,2.21.08.26.16.52.23.78l-.16-.31c-.39-.58-1.47-1.47-2.22-1.26a.93.93,0,0,0-.57,1.25,1.92,1.92,0,0,0,1.3,1,5.66,5.66,0,0,0,1.81,0c.07.27.14.54.19.8s.08.35.1.53.05.35.08.53c0,.34.07.69.1,1l.06.67c-.08-.25-.25-.75-.27-.8-.29-.63-1.23-1.67-2-1.58a.92.92,0,0,0-.75,1.15,1.91,1.91,0,0,0,1.14,1.15,6.2,6.2,0,0,0,1.89.24c0,.36.05.72.06,1.06,0,.93,0,1.73,0,2.37h.52c0-.65,0-1.46-.11-2.4,0-.37-.06-.77-.1-1.18a7.8,7.8,0,0,0,1.12-.36,6.75,6.75,0,0,0,1.41,1.19l-.53.92c-.42.71-.82,1.33-1.14,1.83h.59c.29-.46.61-1,1-1.6l.57-1a6.48,6.48,0,0,0,1.86.38,1.9,1.9,0,0,0,1.45-.72.91.91,0,0,0-.34-1.33c-.7-.34-1.92.35-2.4.85l-.47.62.24-.45.46-.94.22-.49c.08-.16.14-.34.21-.52.15-.4.28-.82.41-1.24a6.35,6.35,0,0,0,1.74.64,1.92,1.92,0,0,0,1.54-.5.92.92,0,0,0-.14-1.36c-.64-.44-2,.05-2.5.48,0,0-.4.37-.59.56.07-.25.15-.51.22-.77.19-.75.36-1.52.53-2.28.06-.24.11-.47.17-.7a6.54,6.54,0,0,0,1.79.67,1.94,1.94,0,0,0,1.55-.5.92.92,0,0,0-.14-1.36c-.64-.44-2,0-2.5.48,0,0-.57.53-.69.66.12-.51.25-1,.39-1.52a15.45,15.45,0,0,1,.71-2,6.5,6.5,0,0,0,1.8.67,1.9,1.9,0,0,0,1.54-.49.92.92,0,0,0-.13-1.36c-.64-.45-2,.05-2.51.47,0,0-.43.41-.61.6l0,0a12,12,0,0,1,1.06-1.83c.22-.32.45-.61.67-.89a6.45,6.45,0,0,0,1.69.84,1.92,1.92,0,0,0,1.58-.32.92.92,0,0,0,0-1.37c-.59-.51-2-.16-2.54.2,0,0-.34.25-.56.43l.31-.38c.38-.44.76-.83,1.1-1.16l.55-.52a6.2,6.2,0,0,0,1.87,0,1.91,1.91,0,0,0,1.26-1,.91.91,0,0,0-.62-1.22c-.76-.18-1.8.75-2.16,1.34,0,.06-.43.91-.42.92h0c-.17.14-.34.3-.53.48-.35.33-.74.71-1.13,1.14a17.52,17.52,0,0,0-1.22,1.48,12.37,12.37,0,0,0-1.1,1.82v0c0-.23.1-.86.1-.91,0-.7-.41-2-1.15-2.27a.91.91,0,0,0-1.16.72,1.89,1.89,0,0,0,.55,1.52,6.36,6.36,0,0,0,1.62,1,18.3,18.3,0,0,0-.77,2c-.13.4-.24.81-.35,1.22,0-.19,0-.37,0-.39,0-.7-.41-2-1.15-2.28a.93.93,0,0,0-1.17.73,1.94,1.94,0,0,0,.55,1.52,6.1,6.1,0,0,0,1.58,1l-.12.47c-.19.77-.38,1.53-.59,2.27-.07.26-.15.52-.23.77,0-.17,0-.32,0-.34,0-.7-.41-2-1.15-2.28a.92.92,0,0,0-1.16.73,1.89,1.89,0,0,0,.55,1.52,6,6,0,0,0,1.53,1c-.09.26-.18.52-.28.76s-.13.34-.21.5-.15.32-.23.49l-.48.91-.32.59c.07-.26.21-.77.22-.82a3.52,3.52,0,0,0-.26-1.78.74.74,0,0,0,0-.21.91.91,0,0,0-1-.91c-.77.1-1.41,1.35-1.54,2,0,0,0,.49,0,.77,0-.17,0-.33,0-.5,0-.34-.08-.68-.13-1l-.09-.53c0-.18-.07-.36-.11-.55-.1-.42-.22-.84-.34-1.27a6.06,6.06,0,0,0,1.8-.42,1.9,1.9,0,0,0,1-1.26.92.92,0,0,0-.87-1.07c-.77,0-1.6,1.13-1.82,1.78l-.18.8c-.08-.25-.15-.5-.24-.76-.26-.73-.54-1.47-.81-2.2-.09-.23-.17-.45-.25-.68a6.48,6.48,0,0,0,1.86-.43,2,2,0,0,0,1-1.26.92.92,0,0,0-.87-1.06c-.78,0-1.6,1.12-1.83,1.78,0,0-.17.75-.2.93-.18-.5-.36-1-.51-1.49a15.21,15.21,0,0,1-.51-2,6.31,6.31,0,0,0,1.88-.43,1.9,1.9,0,0,0,1-1.26.92.92,0,0,0-.86-1.07c-.78,0-1.6,1.13-1.83,1.78,0,.05-.13.58-.18.84H98a12.78,12.78,0,0,1-.13-2.11c0-.39,0-.76.07-1.12a6.23,6.23,0,0,0,1.87-.23,1.93,1.93,0,0,0,1.15-1.14.92.92,0,0,0-.75-1.15c-.77-.1-1.71.94-2,1.57,0,0-.14.4-.22.67,0-.17,0-.34,0-.49.08-.58.18-1.11.28-1.58,0-.27.11-.51.17-.73A6.4,6.4,0,0,0,100,437.8a2,2,0,0,0,.49-1.54.93.93,0,0,0-1.2-.68c-.73.27-1.08,1.63-1.06,2.32,0,.06.15,1,.16,1h0c-.06.21-.12.44-.18.7a15.82,15.82,0,0,0-.31,1.58,15.22,15.22,0,0,0-.2,1.89,12,12,0,0,0,.08,2.14v0c-.1-.2-.39-.77-.42-.81-.38-.58-1.47-1.47-2.21-1.26a.91.91,0,0,0-.57,1.24A1.91,1.91,0,0,0,95.92,445.35Z" style="fill:#263238;opacity:0.30000000000000004"></path></g><g id="freepik--City--inject-64"><path d="M479.26,287.64a.5.5,0,0,1-.5-.5V115.6H442.63v85.14H426.44v-57H401v86.9H385.38V179H374.56v54h-8.31V181.84h-9.69V233H339.81V225.4H314.59V159.2H274.43v65.61h-64V115H165.3v48.74h-28V107.28H95V236H83.86V169.62H45.49v33.47H24.67v71.63H8.83a.5.5,0,1,1,0-1H23.67V202.09H44.49V168.62H84.86V235H94V106.28H138.3v56.47h26V114h47.13v109.8h62V158.2h42.16v66.2h25.22V232h14.75V180.84h11.69V232h6.31V178h12.82v51.67H400v-86.9h27.44v57h14.19V114.6h38.13V287.14A.51.51,0,0,1,479.26,287.64Z" style="fill:#263238"></path><path d="M35.36,220.7h-5.5v-6.87h5.5Zm-4.5-1h3.5v-4.87h-3.5Z" style="fill:#263238"></path><path d="M42.67,220.7h-5.5v-6.87h5.5Zm-4.5-1h3.5v-4.87h-3.5Z" style="fill:#263238"></path><path d="M50,220.7h-5.5v-6.87H50Zm-4.5-1H49v-4.87h-3.5Z" style="fill:#263238"></path><path d="M57.3,220.7H51.8v-6.87h5.5Zm-4.5-1h3.5v-4.87H52.8Z" style="fill:#263238"></path><path d="M64.61,220.7h-5.5v-6.87h5.5Zm-4.5-1h3.5v-4.87h-3.5Z" style="fill:#263238"></path><path d="M71.93,220.7h-5.5v-6.87h5.5Zm-4.5-1h3.5v-4.87h-3.5Z" style="fill:#263238"></path><path d="M106.24,177.25h-5.5v-6.87h5.5Zm-4.5-1h3.5v-4.87h-3.5Z" style="fill:#263238"></path><path d="M113.55,177.25h-5.5v-6.87h5.5Zm-4.5-1h3.5v-4.87h-3.5Z" style="fill:#263238"></path><path d="M120.87,177.25h-5.51v-6.87h5.51Zm-4.51-1h3.51v-4.87h-3.51Z" style="fill:#263238"></path><path d="M128.18,177.25h-5.5v-6.87h5.5Zm-4.5-1h3.5v-4.87h-3.5Z" style="fill:#263238"></path><path d="M106.24,166.68h-5.5v-6.87h5.5Zm-4.5-1h3.5v-4.87h-3.5Z" style="fill:#263238"></path><path d="M113.55,166.68h-5.5v-6.87h5.5Zm-4.5-1h3.5v-4.87h-3.5Z" style="fill:#263238"></path><path d="M120.87,166.68h-5.51v-6.87h5.51Zm-4.51-1h3.51v-4.87h-3.51Z" style="fill:#263238"></path><path d="M128.18,166.68h-5.5v-6.87h5.5Zm-4.5-1h3.5v-4.87h-3.5Z" style="fill:#263238"></path><path d="M106.24,156.11h-5.5v-6.87h5.5Zm-4.5-1h3.5v-4.87h-3.5Z" style="fill:#263238"></path><path d="M113.55,156.11h-5.5v-6.87h5.5Zm-4.5-1h3.5v-4.87h-3.5Z" style="fill:#263238"></path><path d="M120.87,156.11h-5.51v-6.87h5.51Zm-4.51-1h3.51v-4.87h-3.51Z" style="fill:#263238"></path><path d="M128.18,156.11h-5.5v-6.87h5.5Zm-4.5-1h3.5v-4.87h-3.5Z" style="fill:#263238"></path><path d="M106.24,145.54h-5.5v-6.87h5.5Zm-4.5-1h3.5v-4.87h-3.5Z" style="fill:#263238"></path><path d="M113.55,145.54h-5.5v-6.87h5.5Zm-4.5-1h3.5v-4.87h-3.5Z" style="fill:#263238"></path><path d="M120.87,145.54h-5.51v-6.87h5.51Zm-4.51-1h3.51v-4.87h-3.51Z" style="fill:#263238"></path><path d="M128.18,145.54h-5.5v-6.87h5.5Zm-4.5-1h3.5v-4.87h-3.5Z" style="fill:#263238"></path><path d="M106.24,135h-5.5V128.1h5.5Zm-4.5-1h3.5V129.1h-3.5Z" style="fill:#263238"></path><path d="M113.55,135h-5.5V128.1h5.5Zm-4.5-1h3.5V129.1h-3.5Z" style="fill:#263238"></path><path d="M120.87,135h-5.51V128.1h5.51Zm-4.51-1h3.51V129.1h-3.51Z" style="fill:#263238"></path><path d="M128.18,135h-5.5V128.1h5.5Zm-4.5-1h3.5V129.1h-3.5Z" style="fill:#263238"></path><path d="M135.49,177.25H130v-6.87h5.5Zm-4.5-1h3.5v-4.87H131Z" style="fill:#263238"></path><path d="M142.8,177.25h-5.5v-6.87h5.5Zm-4.5-1h3.5v-4.87h-3.5Z" style="fill:#263238"></path><path d="M106.24,189h-5.5v-6.87h5.5Zm-4.5-1h3.5v-4.87h-3.5Z" style="fill:#263238"></path><path d="M113.55,189h-5.5v-6.87h5.5Zm-4.5-1h3.5v-4.87h-3.5Z" style="fill:#263238"></path><path d="M120.87,189h-5.51v-6.87h5.51Zm-4.51-1h3.51v-4.87h-3.51Z" style="fill:#263238"></path><path d="M128.18,189h-5.5v-6.87h5.5Zm-4.5-1h3.5v-4.87h-3.5Z" style="fill:#263238"></path><path d="M135.49,189H130v-6.87h5.5Zm-4.5-1h3.5v-4.87H131Z" style="fill:#263238"></path><path d="M142.8,189h-5.5v-6.87h5.5Zm-4.5-1h3.5v-4.87h-3.5Z" style="fill:#263238"></path><path d="M35.36,233h-5.5v-6.87h5.5Zm-4.5-1h3.5v-4.87h-3.5Z" style="fill:#263238"></path><path d="M42.67,233h-5.5v-6.87h5.5Zm-4.5-1h3.5v-4.87h-3.5Z" style="fill:#263238"></path><path d="M50,233h-5.5v-6.87H50Zm-4.5-1H49v-4.87h-3.5Z" style="fill:#263238"></path><path d="M57.3,233H51.8v-6.87h5.5Zm-4.5-1h3.5v-4.87H52.8Z" style="fill:#263238"></path><path d="M64.61,233h-5.5v-6.87h5.5Zm-4.5-1h3.5v-4.87h-3.5Z" style="fill:#263238"></path><path d="M71.93,233h-5.5v-6.87h5.5Zm-4.5-1h3.5v-4.87h-3.5Z" style="fill:#263238"></path><path d="M35.36,245.36h-5.5v-6.87h5.5Zm-4.5-1h3.5v-4.87h-3.5Z" style="fill:#263238"></path><path d="M42.67,245.36h-5.5v-6.87h5.5Zm-4.5-1h3.5v-4.87h-3.5Z" style="fill:#263238"></path><path d="M50,245.36h-5.5v-6.87H50Zm-4.5-1H49v-4.87h-3.5Z" style="fill:#263238"></path><path d="M57.3,245.36H51.8v-6.87h5.5Zm-4.5-1h3.5v-4.87H52.8Z" style="fill:#263238"></path><path d="M64.61,245.36h-5.5v-6.87h5.5Zm-4.5-1h3.5v-4.87h-3.5Z" style="fill:#263238"></path><path d="M71.93,245.36h-5.5v-6.87h5.5Zm-4.5-1h3.5v-4.87h-3.5Z" style="fill:#263238"></path><path d="M35.36,257.69h-5.5v-6.87h5.5Zm-4.5-1h3.5v-4.87h-3.5Z" style="fill:#263238"></path><path d="M42.67,257.69h-5.5v-6.87h5.5Zm-4.5-1h3.5v-4.87h-3.5Z" style="fill:#263238"></path><path d="M50,257.69h-5.5v-6.87H50Zm-4.5-1H49v-4.87h-3.5Z" style="fill:#263238"></path><path d="M57.3,257.69H51.8v-6.87h5.5Zm-4.5-1h3.5v-4.87H52.8Z" style="fill:#263238"></path><path d="M64.61,257.69h-5.5v-6.87h5.5Zm-4.5-1h3.5v-4.87h-3.5Z" style="fill:#263238"></path><path d="M71.93,257.69h-5.5v-6.87h5.5Zm-4.5-1h3.5v-4.87h-3.5Z" style="fill:#263238"></path><path d="M35.36,270h-5.5v-6.87h5.5Zm-4.5-1h3.5v-4.87h-3.5Z" style="fill:#263238"></path><path d="M42.67,270h-5.5v-6.87h5.5Zm-4.5-1h3.5v-4.87h-3.5Z" style="fill:#263238"></path><path d="M50,270h-5.5v-6.87H50Zm-4.5-1H49v-4.87h-3.5Z" style="fill:#263238"></path><path d="M57.3,270H51.8v-6.87h5.5Zm-4.5-1h3.5v-4.87H52.8Z" style="fill:#263238"></path><path d="M64.61,270h-5.5v-6.87h5.5Zm-4.5-1h3.5v-4.87h-3.5Z" style="fill:#263238"></path><path d="M71.93,270h-5.5v-6.87h5.5Zm-4.5-1h3.5v-4.87h-3.5Z" style="fill:#263238"></path><path d="M461.19,133.8h-5.5v-6.87h5.5Zm-4.5-1h3.5v-4.87h-3.5Z" style="fill:#263238"></path><path d="M468.51,133.8H463v-6.87h5.5Zm-4.5-1h3.5v-4.87H464Z" style="fill:#263238"></path><path d="M475.82,133.8h-5.5v-6.87h5.5Zm-4.5-1h3.5v-4.87h-3.5Z" style="fill:#263238"></path><path d="M461.19,148.48h-5.5v-6.87h5.5Zm-4.5-1h3.5v-4.87h-3.5Z" style="fill:#263238"></path><path d="M468.51,148.48H463v-6.87h5.5Zm-4.5-1h3.5v-4.87H464Z" style="fill:#263238"></path><path d="M475.82,148.48h-5.5v-6.87h5.5Zm-4.5-1h3.5v-4.87h-3.5Z" style="fill:#263238"></path><path d="M461.19,163.16h-5.5v-6.87h5.5Zm-4.5-1h3.5v-4.87h-3.5Z" style="fill:#263238"></path><path d="M468.51,163.16H463v-6.87h5.5Zm-4.5-1h3.5v-4.87H464Z" style="fill:#263238"></path><path d="M475.82,163.16h-5.5v-6.87h5.5Zm-4.5-1h3.5v-4.87h-3.5Z" style="fill:#263238"></path><path d="M461.19,177.84h-5.5V171h5.5Zm-4.5-1h3.5V172h-3.5Z" style="fill:#263238"></path><path d="M468.51,177.84H463V171h5.5Zm-4.5-1h3.5V172H464Z" style="fill:#263238"></path><path d="M475.82,177.84h-5.5V171h5.5Zm-4.5-1h3.5V172h-3.5Z" style="fill:#263238"></path><path d="M461.19,192.52h-5.5v-6.88h5.5Zm-4.5-1h3.5v-4.88h-3.5Z" style="fill:#263238"></path><path d="M468.51,192.52H463v-6.88h5.5Zm-4.5-1h3.5v-4.88H464Z" style="fill:#263238"></path><path d="M475.82,192.52h-5.5v-6.88h5.5Zm-4.5-1h3.5v-4.88h-3.5Z" style="fill:#263238"></path><path d="M461.19,207.2h-5.5v-6.88h5.5Zm-4.5-1h3.5v-4.88h-3.5Z" style="fill:#263238"></path><path d="M468.51,207.2H463v-6.88h5.5Zm-4.5-1h3.5v-4.88H464Z" style="fill:#263238"></path><path d="M475.82,207.2h-5.5v-6.88h5.5Zm-4.5-1h3.5v-4.88h-3.5Z" style="fill:#263238"></path><path d="M461.19,221.88h-5.5V215h5.5Zm-4.5-1h3.5V216h-3.5Z" style="fill:#263238"></path><path d="M468.51,221.88H463V215h5.5Zm-4.5-1h3.5V216H464Z" style="fill:#263238"></path><path d="M475.82,221.88h-5.5V215h5.5Zm-4.5-1h3.5V216h-3.5Z" style="fill:#263238"></path><path d="M461.19,236.55h-5.5v-6.87h5.5Zm-4.5-1h3.5v-4.87h-3.5Z" style="fill:#263238"></path><path d="M468.51,236.55H463v-6.87h5.5Zm-4.5-1h3.5v-4.87H464Z" style="fill:#263238"></path><path d="M475.82,236.55h-5.5v-6.87h5.5Zm-4.5-1h3.5v-4.87h-3.5Z" style="fill:#263238"></path><path d="M461.19,251.23h-5.5v-6.87h5.5Zm-4.5-1h3.5v-4.87h-3.5Z" style="fill:#263238"></path><path d="M468.51,251.23H463v-6.87h5.5Zm-4.5-1h3.5v-4.87H464Z" style="fill:#263238"></path><path d="M413.32,163.16h-5.5v-6.87h5.5Zm-4.5-1h3.5v-4.87h-3.5Z" style="fill:#263238"></path><path d="M420.63,163.16h-5.5v-6.87h5.5Zm-4.5-1h3.5v-4.87h-3.5Z" style="fill:#263238"></path><path d="M413.32,177.84h-5.5V171h5.5Zm-4.5-1h3.5V172h-3.5Z" style="fill:#263238"></path><path d="M420.63,177.84h-5.5V171h5.5Zm-4.5-1h3.5V172h-3.5Z" style="fill:#263238"></path><path d="M413.32,192.52h-5.5v-6.88h5.5Zm-4.5-1h3.5v-4.88h-3.5Z" style="fill:#263238"></path><path d="M420.63,192.52h-5.5v-6.88h5.5Zm-4.5-1h3.5v-4.88h-3.5Z" style="fill:#263238"></path><path d="M413.32,207.2h-5.5v-6.88h5.5Zm-4.5-1h3.5v-4.88h-3.5Z" style="fill:#263238"></path><path d="M420.63,207.2h-5.5v-6.88h5.5Zm-4.5-1h3.5v-4.88h-3.5Z" style="fill:#263238"></path><path d="M413.32,221.88h-5.5V215h5.5Zm-4.5-1h3.5V216h-3.5Z" style="fill:#263238"></path><path d="M420.63,221.88h-5.5V215h5.5Zm-4.5-1h3.5V216h-3.5Z" style="fill:#263238"></path><path d="M413.32,236.55h-5.5v-6.87h5.5Zm-4.5-1h3.5v-4.87h-3.5Z" style="fill:#263238"></path><path d="M420.63,236.55h-5.5v-6.87h5.5Zm-4.5-1h3.5v-4.87h-3.5Z" style="fill:#263238"></path><path d="M413.32,251.23h-5.5v-6.87h5.5Zm-4.5-1h3.5v-4.87h-3.5Z" style="fill:#263238"></path><path d="M420.63,251.23h-5.5v-6.87h5.5Zm-4.5-1h3.5v-4.87h-3.5Z" style="fill:#263238"></path><path d="M284.43,177.84h-5.5V171h5.5Zm-4.5-1h3.5V172h-3.5Z" style="fill:#263238"></path><path d="M291.74,177.84h-5.5V171h5.5Zm-4.5-1h3.5V172h-3.5Z" style="fill:#263238"></path><path d="M284.43,192.52h-5.5v-6.88h5.5Zm-4.5-1h3.5v-4.88h-3.5Z" style="fill:#263238"></path><path d="M291.74,192.52h-5.5v-6.88h5.5Zm-4.5-1h3.5v-4.88h-3.5Z" style="fill:#263238"></path><path d="M284.43,207.2h-5.5v-6.88h5.5Zm-4.5-1h3.5v-4.88h-3.5Z" style="fill:#263238"></path><path d="M291.74,207.2h-5.5v-6.88h5.5Zm-4.5-1h3.5v-4.88h-3.5Z" style="fill:#263238"></path><path d="M284.43,221.88h-5.5V215h5.5Zm-4.5-1h3.5V216h-3.5Z" style="fill:#263238"></path><path d="M291.74,221.88h-5.5V215h5.5Zm-4.5-1h3.5V216h-3.5Z" style="fill:#263238"></path><path d="M284.43,236.55h-5.5v-6.87h5.5Zm-4.5-1h3.5v-4.87h-3.5Z" style="fill:#263238"></path><path d="M291.74,236.55h-5.5v-6.87h5.5Zm-4.5-1h3.5v-4.87h-3.5Z" style="fill:#263238"></path><path d="M284.43,251.23h-5.5v-6.87h5.5Zm-4.5-1h3.5v-4.87h-3.5Z" style="fill:#263238"></path><path d="M291.74,251.23h-5.5v-6.87h5.5Zm-4.5-1h3.5v-4.87h-3.5Z" style="fill:#263238"></path><path d="M301,177.84h-5.5V171H301Zm-4.5-1H300V172h-3.5Z" style="fill:#263238"></path><path d="M308.3,177.84h-5.5V171h5.5Zm-4.5-1h3.5V172h-3.5Z" style="fill:#263238"></path><path d="M301,192.52h-5.5v-6.88H301Zm-4.5-1H300v-4.88h-3.5Z" style="fill:#263238"></path><path d="M308.3,192.52h-5.5v-6.88h5.5Zm-4.5-1h3.5v-4.88h-3.5Z" style="fill:#263238"></path><path d="M301,207.2h-5.5v-6.88H301Zm-4.5-1H300v-4.88h-3.5Z" style="fill:#263238"></path><path d="M308.3,207.2h-5.5v-6.88h5.5Zm-4.5-1h3.5v-4.88h-3.5Z" style="fill:#263238"></path><path d="M301,221.88h-5.5V215H301Zm-4.5-1H300V216h-3.5Z" style="fill:#263238"></path><path d="M308.3,221.88h-5.5V215h5.5Zm-4.5-1h3.5V216h-3.5Z" style="fill:#263238"></path><path d="M301,236.55h-5.5v-6.87H301Zm-4.5-1H300v-4.87h-3.5Z" style="fill:#263238"></path><path d="M308.3,236.55h-5.5v-6.87h5.5Zm-4.5-1h3.5v-4.87h-3.5Z" style="fill:#263238"></path><path d="M301,251.23h-5.5v-6.87H301Zm-4.5-1H300v-4.87h-3.5Z" style="fill:#263238"></path><path d="M308.3,251.23h-5.5v-6.87h5.5Zm-4.5-1h3.5v-4.87h-3.5Z" style="fill:#263238"></path><path d="M186,133.8h-5.5v-6.87H186Zm-4.5-1H185v-4.87h-3.5Z" style="fill:#263238"></path><path d="M193.35,133.8h-5.5v-6.87h5.5Zm-4.5-1h3.5v-4.87h-3.5Z" style="fill:#263238"></path><path d="M186,148.48h-5.5v-6.87H186Zm-4.5-1H185v-4.87h-3.5Z" style="fill:#263238"></path><path d="M193.35,148.48h-5.5v-6.87h5.5Zm-4.5-1h3.5v-4.87h-3.5Z" style="fill:#263238"></path><path d="M186,163.16h-5.5v-6.87H186Zm-4.5-1H185v-4.87h-3.5Z" style="fill:#263238"></path><path d="M193.35,163.16h-5.5v-6.87h5.5Zm-4.5-1h3.5v-4.87h-3.5Z" style="fill:#263238"></path><path d="M186,177.84h-5.5V171H186Zm-4.5-1H185V172h-3.5Z" style="fill:#263238"></path><path d="M193.35,177.84h-5.5V171h5.5Zm-4.5-1h3.5V172h-3.5Z" style="fill:#263238"></path><path d="M186,192.52h-5.5v-6.88H186Zm-4.5-1H185v-4.88h-3.5Z" style="fill:#263238"></path><path d="M193.35,192.52h-5.5v-6.88h5.5Zm-4.5-1h3.5v-4.88h-3.5Z" style="fill:#263238"></path><path d="M186,207.2h-5.5v-6.88H186Zm-4.5-1H185v-4.88h-3.5Z" style="fill:#263238"></path><path d="M193.35,207.2h-5.5v-6.88h5.5Zm-4.5-1h3.5v-4.88h-3.5Z" style="fill:#263238"></path><path d="M186,221.88h-5.5V215H186Zm-4.5-1H185V216h-3.5Z" style="fill:#263238"></path><path d="M193.35,221.88h-5.5V215h5.5Zm-4.5-1h3.5V216h-3.5Z" style="fill:#263238"></path><path d="M186,236.55h-5.5v-6.87H186Zm-4.5-1H185v-4.87h-3.5Z" style="fill:#263238"></path><path d="M193.35,236.55h-5.5v-6.87h5.5Zm-4.5-1h3.5v-4.87h-3.5Z" style="fill:#263238"></path><path d="M186,251.23h-5.5v-6.87H186Zm-4.5-1H185v-4.87h-3.5Z" style="fill:#263238"></path><path d="M193.35,251.23h-5.5v-6.87h5.5Zm-4.5-1h3.5v-4.87h-3.5Z" style="fill:#263238"></path><path d="M475.82,251.23h-5.5v-6.87h5.5Zm-4.5-1h3.5v-4.87h-3.5Z" style="fill:#263238"></path></g><g id="freepik--Trees--inject-64"><path d="M398.32,361.54c0,32.9-18.45,35.39-41.2,35.39s-41.21-2.49-41.21-35.39,18.45-101.66,41.21-101.66S398.32,328.65,398.32,361.54Z" style="fill:#4DD3CE"></path><path d="M398.32,361.54c0,32.9-18.45,35.39-41.2,35.39s-41.21-2.49-41.21-35.39,18.45-101.66,41.21-101.66S398.32,328.65,398.32,361.54Z" style="fill:#fff;opacity:0.58"></path><polygon points="371.05 376.47 364.23 376.94 381.99 364.97 369.31 371.38 371.05 366.38 365.25 373.43 358.45 376.87 357.92 353.25 361.51 344.5 357.83 349.42 357.51 335.72 368.81 320.67 357.44 332.31 356.75 302.16 356.14 321.45 348.89 313.38 356.02 325.16 355.06 355.73 348.75 351.6 343.01 341.42 345.31 349.35 334.03 341.98 354.92 360 351.76 460.32 360.36 460.32 358.54 380.78 360.53 379.44 371.05 376.47" style="fill:#263238"></polygon><path d="M484.87,324.88c0,45.11-25.3,48.51-56.5,48.51s-56.5-3.4-56.5-48.51,25.3-139.41,56.5-139.41S484.87,279.77,484.87,324.88Z" style="fill:#4DD3CE"></path><path d="M484.87,324.88c0,45.11-25.3,48.51-56.5,48.51s-56.5-3.4-56.5-48.51,25.3-139.41,56.5-139.41S484.87,279.77,484.87,324.88Z" style="fill:#fff;opacity:0.31"></path><polygon points="447.47 345.34 438.13 345.99 462.47 329.58 445.08 338.37 447.47 331.5 439.52 341.18 430.2 345.89 429.46 313.5 434.4 301.51 429.34 308.25 428.91 289.47 444.4 268.82 428.81 284.78 427.86 243.44 427.03 269.9 417.09 258.82 426.87 274.99 425.55 316.9 416.9 311.24 409.02 297.28 412.18 308.16 396.71 298.05 425.36 322.75 421.02 460.32 432.82 460.32 430.32 351.25 433.05 349.41 447.47 345.34" style="fill:#263238"></polygon><path d="M93.78,365c0,31.75,17.81,34.14,39.77,34.14s39.77-2.39,39.77-34.14-17.81-98.13-39.77-98.13S93.78,333.23,93.78,365Z" style="fill:#4DD3CE"></path><path d="M93.78,365c0,31.75,17.81,34.14,39.77,34.14s39.77-2.39,39.77-34.14-17.81-98.13-39.77-98.13S93.78,333.23,93.78,365Z" style="fill:#fff;opacity:0.58"></path><polygon points="120.1 379.39 126.68 379.85 109.55 368.29 121.78 374.48 120.1 369.65 125.7 376.46 132.26 379.77 132.78 356.97 129.31 348.54 132.86 353.28 133.17 340.06 122.27 325.53 133.24 336.76 133.91 307.67 134.49 326.29 141.49 318.49 134.61 329.87 135.54 359.37 141.62 355.39 147.17 345.56 144.94 353.22 155.83 346.1 135.67 363.49 138.72 460.32 130.42 460.32 132.17 383.55 130.25 382.25 120.1 379.39" style="fill:#263238"></polygon><path d="M7.61,325.33c0,45,25.21,48.35,56.31,48.35s56.31-3.39,56.31-48.35S95,186.39,63.92,186.39,7.61,280.37,7.61,325.33Z" style="fill:#4DD3CE"></path><path d="M7.61,325.33c0,45,25.21,48.35,56.31,48.35s56.31-3.39,56.31-48.35S95,186.39,63.92,186.39,7.61,280.37,7.61,325.33Z" style="fill:#fff;opacity:0.31"></path><polygon points="44.88 345.73 54.2 346.37 29.94 330.01 47.26 338.77 44.88 331.93 52.8 341.57 62.09 346.27 62.83 313.99 57.91 302.04 62.95 308.76 63.38 290.04 47.95 269.46 63.49 285.37 64.43 244.17 65.26 270.54 75.16 259.5 65.42 275.61 66.74 317.38 75.36 311.74 83.21 297.82 80.06 308.67 95.47 298.59 66.92 323.21 71.24 460.32 59.49 460.32 61.97 351.61 59.26 349.78 44.88 345.73" style="fill:#263238"></polygon></g></svg>