<svg xmlns="http://www.w3.org/2000/svg" viewBox="0 0 646.61 416.32"><g id="freepik--Shadow--inject-121"><path d="M602.19,406.16c0,3.99-124.86,7.22-278.89,7.22s-278.89-3.23-278.89-7.22,124.86-7.22,278.89-7.22,278.89,3.23,278.89,7.22Z" style="fill:#ebebeb;"></path></g><g id="freepik--Floor--inject-121"><g><path d="M0,330.3c207.13-.61,439.48-.62,646.61,0-207.13,.62-439.48,.61-646.61,0H0Z" style="fill:#263238;"></path><path d="M106.31,353.75c139.02-.61,294.96-.62,433.98,0-139.02,.62-294.96,.61-433.98,0h0Z" style="fill:#263238;"></path><path d="M12.3,365.32c75.29-.65,159.76-.66,235.05,0-75.29,.66-159.76,.65-235.05,0h0Z" style="fill:#263238;"></path><path d="M310.22,415.83c32.88-.66,69.45-.65,102.35,0-32.91,.65-69.46,.66-102.35,0h0Z" style="fill:#263238;"></path><path d="M513.43,343.67c32.88-.66,69.45-.65,102.35,0-32.91,.65-69.46,.66-102.35,0h0Z" style="fill:#263238;"></path><path d="M369.25,408.96c75.29-.65,159.76-.66,235.05,0-75.29,.66-159.76,.65-235.05,0h0Z" style="fill:#263238;"></path></g></g><g id="freepik--Plants--inject-121"><g><path d="M137.33,365.6h-56.99s.13-8.48,5.73-10.73c5.6-2.25,8.93,2.14,8.93,2.14,0,0,2.29-15.6,12.73-15.6s15.44,13.46,15.44,13.46c0,0,2.34-4.07,8.13-3.31,5.8,.76,6.03,14.04,6.03,14.04Z" style="fill:#455a64;"></path><path d="M608.6,343.4s-1.75-8.15-5.24-9.41c-3.49-1.26-5.61,2.4-5.61,2.4,0,0-.82-7.79-5.77-10.12-4.95-2.33-8.66,2.44-8.66,2.44,0,0-3.8-9.88-10.58-9.88s-10.2,14.46-10.2,14.46c0,0-4-4.31-8.11-1.88-4.1,2.43-4.1,11.98-4.1,11.98h58.27Z" style="fill:#37474f;"></path><path d="M90.56,365.6H38s1.73-7.41,5.22-7.93c3.48-.52,5.11,2.91,5.11,2.91,0,0-.16-10.33,6.35-12.09,6.51-1.76,11.97,7.37,11.97,7.37,0,0,4.08-5.21,9.64-4.87,5.56,.33,6.97,8.93,6.97,8.93,0,0,5.06-2.99,7.3,5.68Z" style="fill:#37474f;"></path><path d="M478.44,353.75h-32.29s.07-4.81,3.25-6.08,5.06,1.21,5.06,1.21c0,0,1.29-8.84,7.21-8.84s8.75,7.62,8.75,7.62c0,0,1.32-2.3,4.61-1.88,3.28,.43,3.41,7.96,3.41,7.96Z" style="fill:#455a64;"></path></g></g><g id="freepik--Lines--inject-121"><g><path d="M316.34,191.31c23.35-.67,46.85-.67,70.21,0-23.36,.67-46.86,.67-70.21,0h0Z" style="fill:#263238;"></path><path d="M147.92,145.22c17.41-.67,34.96-.67,52.38,0-17.42,.67-34.96,.67-52.38,0h0Z" style="fill:#263238;"></path><path d="M215.53,55.86c14.42-.68,28.97-.68,43.39,0-14.43,.68-28.97,.68-43.39,0h0Z" style="fill:#263238;"></path><path d="M197.57,60.85c12.6-.68,25.31-.68,37.91,0-12.6,.68-25.31,.68-37.91,0h0Z" style="fill:#263238;"></path><path d="M352.14,182.3c12.6-.68,25.31-.68,37.91,0-12.6,.68-25.31,.68-37.91,0h0Z" style="fill:#263238;"></path><path d="M92.4,135.55c34.18-.66,72.17-.65,106.37,0-34.21,.65-72.19,.66-106.37,0h0Z" style="fill:#263238;"></path></g></g><g id="freepik--character-2--inject-121"><g><g><path d="M461.88,74.46c17.83,18.5,42.13,35.53,48.6,30.37,8.7-6.95,22.14-28.37,26.64-41.33,1.32-3.81-28.51-13.5-29.93-9.43-1.71,4.92-11.72,21.97-12.03,22.39-.67,.9-20.52-10.94-30.5-14.65-11.64-4.32-11.11,4.02-2.78,12.66Z" style="fill:#f7a9a0;"></path><g><path d="M541.25,48.36c.03,6.7-5.27,20.43-7.83,23.25-2.55,2.82-26.19-5.42-27.43-9.12-1.24-3.7,.41-26.27,4.67-31.63,4.25-5.36,30.57,10.56,30.6,17.5Z" style="fill:#f7a9a0;"></path><g><path d="M506.27,41.26c1.7,3.11,4.4-.68,4.4-.68,0,0-2.56,6.39,.44,8.93,2.9,2.43,5.99-2.26,6.22-2.6-.13,.34-2.33,6.28,.94,8.51,3.41,2.32,5.7-2.93,5.85-3.27-.02,.36-.27,5.12,2.6,6.25,4.94,1.94,5.9-10.22,9.29-12.87,0,0,5.05,3.02,5.23,3.14,0,0,1.25-9.35-2.58-13.71-2.02-2.3-4.56-.87-4.56-.87,0,0,.78-3.68-1.74-5.52-1.3-.94-3.96,.3-3.96,.3,0,0,.5-2.98-1.84-4.47-1.87-1.2-4.25,.23-4.25,.23,0,0-.84-3.08-3.15-3.69-4.65-1.23-16.53,13.66-12.89,20.33Z" style="fill:#f7a9a0;"></path><g><path d="M521.9,24.79s-.01-.12-.06-.08c-5.1,3.94-9.5,9.84-11.33,16.06-.06,.2,.25,.39,.35,.18,3.11-6.05,6.36-11.18,11.04-16.16Z" style="fill:#263238;"></path><path d="M528.43,28.76c.05-.05-.04-.14-.1-.09-5.24,4.09-10.01,10.87-11.27,18.29-.04,.25,.17,.53,.25,.24,1.22-4.87,6.89-13.97,11.13-18.44Z" style="fill:#263238;"></path><path d="M524.21,52.7c1.49-7.07,5.09-12.95,9.67-18.46,.06-.07-.05-.15-.11-.1-2.97,2.09-5.52,5.9-7.25,9.04-1.66,3-2.55,6.05-2.55,9.47,0,.13,.22,.2,.25,.05Z" style="fill:#263238;"></path></g><path d="M510.67,40.58c-.37,1.28-.65,2.58-.78,3.89-.12,1.3-.09,2.67,.44,3.77,.27,.54,.69,.98,1.23,1.19,.55,.21,1.17,.32,1.75,.23,1.16-.15,2.18-1.05,2.81-2.02l1.57-2.45-.62,2.85c-.27,1.24-.38,2.59-.24,3.85,.14,1.25,.62,2.47,1.57,3.11,.98,.69,2.15,.73,3.06-.03,.93-.71,1.64-1.88,2.11-3.03l1.31-3.19-.19,3.43c-.05,.93,.01,1.93,.2,2.85,.2,.92,.55,1.81,1.16,2.39,.6,.57,1.52,.82,2.25,.52,.78-.3,1.43-1.08,1.97-1.87,1.09-1.63,1.84-3.51,2.68-5.35,.41-.92,.83-1.85,1.29-2.75,.47-.89,.96-1.83,1.77-2.46-.74,.7-1.11,1.67-1.51,2.58-.38,.93-.72,1.88-1.07,2.83-.68,1.9-1.39,3.81-2.45,5.6-.56,.87-1.19,1.8-2.29,2.31-1.14,.53-2.5,.16-3.35-.64-.88-.82-1.28-1.9-1.52-2.93-.23-1.05-.31-2.08-.27-3.17l1.12,.24c-.54,1.35-1.24,2.62-2.46,3.6-.6,.48-1.42,.82-2.25,.79-.84-.02-1.59-.33-2.23-.78-1.32-.95-1.85-2.54-1.99-3.94-.14-1.44,0-2.83,.32-4.23l.95,.4c-.84,1.21-2.08,2.16-3.6,2.31-.75,.07-1.48-.1-2.14-.4-.69-.31-1.22-.92-1.51-1.59-.56-1.35-.42-2.77-.22-4.09,.23-1.33,.62-2.62,1.13-3.85Z" style="fill:#263238;"></path></g><g><path d="M504.71,61.84s-12.14-25.71,.24-25.53c3.68,.05,18.71,4.66,17.85,7.7-1.12,3.92-7.76,3.17-11.85,2.04,0,0,5.36,8.16,.79,13.59-2.87,3.4-7.03,2.2-7.03,2.2Z" style="fill:#f7a9a0;"></path><path d="M503.91,36.35c1.44-.21,2.9-.03,4.33,.19,1.44,.22,2.85,.58,4.24,.99,2.78,.86,5.5,1.79,8.13,3.14,.66,.35,1.31,.73,1.91,1.31,.3,.28,.58,.65,.75,1.09,.09,.22,.14,.42,.16,.71,0,.26-.02,.5-.09,.72-.24,.89-.86,1.56-1.53,2.02-.7,.44-1.45,.7-2.21,.87-1.52,.32-3.03,.26-4.49,.06-1.47-.18-2.89-.54-4.3-.92l.55-.77c.6,.98,1.06,1.97,1.45,3,.39,1.03,.68,2.11,.85,3.2,.16,1.09,.17,2.21,.01,3.3-.15,1.09-.52,2.14-1.06,3.08,.41-1,.66-2.06,.71-3.12,.06-1.06-.07-2.12-.29-3.15-.22-1.03-.56-2.04-.99-3-.43-.96-.94-1.91-1.52-2.75l-.74-1.06,1.28,.29c1.38,.31,2.77,.64,4.16,.76,1.39,.14,2.8,.2,4.1-.1,1.27-.28,2.54-.96,2.84-2.04,.34-.92-.94-1.85-2.12-2.5-1.22-.69-2.53-1.26-3.84-1.83-1.31-.57-2.64-1.12-3.98-1.6-2.69-.91-5.44-1.85-8.33-1.9Z" style="fill:#263238;"></path></g></g></g><g><g><g><g><path d="M329.77,390.11c-1.06-.15-19.93-1.89-21.33-3.56-14.19-16.87-31.63-58.35-31.82-60.34-.14-1.25,19.05-12.97,19.16-13.05,2.05-1.71,39.98-27.2,39.98-27.2l28.73,38.53-39.19,25.69-.64,.48s-.16,11.03,1.82,21.42c.27,1.44,5.47,8.22,5.71,9.42,.8,3.97-.95,8.83-2.41,8.62Z" style="fill:#f7a9a0;"></path><path d="M329.78,390.11c-1.07-.15-19.94-1.89-21.34-3.56-14.19-16.86-31.63-58.34-31.82-60.34-.14-1.25,19.05-12.96,19.16-13.05,.51-.42,3.19-2.29,6.97-4.87l28.14,38.22-5.59,3.67-.64,.47s-.15,11.04,1.82,21.42c.28,1.44,5.47,8.22,5.71,9.42,.81,3.96-.94,8.82-2.4,8.62Z" style="fill:#ebebeb;"></path></g><g><path d="M330.46,390.5c-.66,.32-21.31-2.44-22.5-3.86-11.35-13.6-32.48-58.64-32.43-61.03,.02-1.25,10.42-8.28,21.6-13.86l27.78,39s.1,13.77,1.7,21.37c.36,1.73,5.52,7.99,5.89,9.26,1.13,3.92-1.08,8.65-2.04,9.12Z" style="fill:#263238;"></path><g><path d="M330.43,379.49c-2.68-2.37-6.39-3.36-9.17-3.05-2.67,.3-5.62,1.37-7.4,3.7-.05,.07,.08,.17,.14,.12,4.18-3.74,11.42-4.09,16.32-.63,.1,.07,.2-.06,.11-.14Z" style="fill:#FFC73C;"></path><path d="M293.84,324.68c-2.86-4.7-10.16-.27-7.3,4.44,2.86,4.7,10.16,.27,7.3-4.44Z" style="fill:#FFC73C;"></path><g><g><path d="M339.37,353.56c.59-3.18-2.7-4.92-5.3-5.22-3.33-.37-7.18,.09-10.53,1.19-.48,.14-.95,.31-1.4,.49-.19,.09-.39,.17-.58,.24,0,.02-.01,0-.01,0l-.14,.08c-.16,.07-.32,.14-.47,.21-.09,.05-.09,.14-.03,.21-.18,.16-.26,.43-.17,.66,.03,.12,.11,.22,.24,.3,1.05,.52,2.12,1.08,3.19,1.64,.17,.11,.35,.19,.54,.29,2.62,1.36,5.3,2.64,8.2,3.07,2.49,.37,5.89-.16,6.46-3.16Zm-12.02-.18c-.92-.42-1.83-.86-2.73-1.29-.77-.37-1.54-.73-2.32-1.07-.11-.05-.23-.1-.32-.14-.1-.04-.2-.09-.3-.13,.1-.02,.2-.04,.3-.06t.04,0c.67-.12,1.32-.22,1.98-.35,1.78-.31,3.55-.61,5.37-.72,1.23-.08,2.51-.15,3.75-.06,1.93,.15,7.85,2.36,3.43,5.38-2.43,1.66-6.96-.51-9.2-1.55Z" style="fill:#FFC73C;"></path><path d="M321.71,351.35c.08,.03,.15,0,.19-.09,.04-.13,.06-.26,.07-.38,.04-.06,.04-.12,.04-.16,0-.02,.02-.03,0-.04,.08-.23,.11-.44,.13-.66,.16-.81,.26-1.63,.3-2.45,.25-3.25-.12-6.71-1.07-9.62-.81-2.49-3.2-5.34-6.18-4.12-.11,.04-.21,.1-.31,.16-2.5,1.27-2.31,4.55-1.47,6.82,.9,2.37,2.38,4.49,3.97,6.5,1.11,1.39,2.27,2.74,3.35,4.11l.02,.03c.28,.35,.75,.2,.95-.11Zm-3.88-5.76c-1.49-2-4.55-5.99-3.42-8.71,.35-.84,.73-1.37,1.14-1.68,1.98-1.56,4.37,2.39,4.82,3.95,.36,1.19,.55,2.46,.74,3.69,.14,.94,.22,1.87,.27,2.82,.1,1.54,.13,3.07,.19,4.62v.02c0,.1,.01,.2,0,.29-.05-.09-.1-.15-.17-.23-.14-.21-.26-.4-.41-.59-1.03-1.41-2.12-2.77-3.16-4.17Z" style="fill:#FFC73C;"></path></g><g><path d="M326.05,356.55c-2.33-4.31-6.61-8.43-11.6-9.14-.19-.03-.23,.25-.09,.34,4.15,2.76,7.69,5.6,11.2,9.17,.25,.25,.65-.06,.49-.37Z" style="fill:#FFC73C;"></path><path d="M326.6,360.58c-2.33-4.31-6.61-8.43-11.6-9.14-.19-.03-.23,.25-.09,.34,4.15,2.76,7.69,5.6,11.2,9.17,.25,.25,.65-.06,.49-.37Z" style="fill:#FFC73C;"></path><path d="M327.16,364.6c-2.33-4.31-6.61-8.43-11.6-9.14-.19-.03-.23,.25-.09,.34,4.15,2.76,7.69,5.6,11.2,9.17,.25,.25,.65-.06,.49-.37Z" style="fill:#FFC73C;"></path><path d="M327.72,368.62c-2.33-4.31-6.61-8.43-11.6-9.14-.19-.03-.23,.25-.09,.34,4.15,2.76,7.69,5.6,11.2,9.17,.25,.25,.65-.06,.49-.37Z" style="fill:#FFC73C;"></path></g></g><path d="M331.03,387.7c-5.55-1.56-11.36-2.26-16.96-3.62-.66-.16-1.31-.32-1.97-.48-.72-.17-1.44-.26-1.91-.88-.82-1.08-1.41-2.43-2.08-3.61-1.39-2.46-2.77-4.92-4.14-7.39-5.53-9.9-10.9-19.89-16.21-29.92-1.5-2.83-3.01-5.65-4.52-8.48-1.51-2.84-3.2-5.57-4.71-8.4-.05-.1-.22-.03-.17,.07,1.24,2.64,2.31,5.35,3.6,7.96,1.29,2.61,2.58,5.23,3.91,7.82,2.65,5.15,5.35,10.27,8.1,15.36,2.75,5.09,5.54,10.17,8.36,15.22,1.42,2.55,2.87,5.09,4.31,7.62,.7,1.23,1.39,2.46,2.11,3.67,.6,1.03,1.22,1.61,2.4,1.9,6.48,1.57,13.21,2.35,19.75,3.62,.27,.05,.4-.4,.12-.48Z" style="fill:#FFC73C;"></path></g></g></g><g><path d="M467.95,120.76s4.01,34.31-3.07,42.12c0,0-23.99,83.92-30.24,102.66-6.87,20.59-90.29,72.22-90.29,72.22l-28-38.72s18.93-15.88,38.13-30.09c13.9-10.29,30.2-17.16,30.31-17.96,1.43-11.11,26.08-81.08,25.4-82.99-7.82-21.63,4.84-47.25,4.84-47.25h52.93Z" style="fill:#f7a9a0;"></path><g><path d="M415.02,120.76h54.87s1.86,30.49-3.34,42.47c0,0-12.48,50.34-12.8,50.56-.32,.22-18.37-1.04-28.57-2.15-10.2-1.11-27.91-9.55-28.02-10.1-.11-.55,9.11-33.3,9.11-33.3,0,0-4.89-16.47,8.75-47.48Z" style="fill:#FFC73C;"></path><path d="M466.55,163.23s-12.48,50.33-12.8,50.56c-.23,.15-8.82-.4-17.48-1.11l-17.66-32.05-1.43-2.59-2.09-3.8-1.43-2.58-8.17-14.83c.39-7.99,2.5-20.1,9.53-36.07h54.87s1.87,30.49-3.34,42.47Z" style="opacity: .1;"></path><g><path d="M416.34,168.86l.03,.2-1.28,5.18-7.95,32.04c-.64-.26-1.27-.52-1.87-.78l8.39-33.84,.67-2.7c-2.26-15.61,4.96-39.28,7.97-48.2h2.13c-2.8,8.27-10.4,32.74-8.09,48.1Z" style="fill:#455a64;"></path><path d="M421.36,169.2l.03,.2-2.78,11.23-6.81,27.45c-.64-.23-1.27-.47-1.89-.71l7.27-29.33,2.17-8.74c-2.29-15.81,5.14-39.87,8.09-48.54h2.12c-2.7,7.93-10.54,32.87-8.2,48.44Z" style="fill:#455a64;"></path></g></g></g></g><g><g><g><path d="M612.33,375.64c-2.03,1.78-69.74,30.06-73,29.5-.55-.09-4.33-11.12-9.49-23.82-6.42-15.79-14.43-33.91-14.43-33.91l43.06-16.38,14.04,34.16s29.92,.75,33.44,1.74c3.5,1,8.43,6.93,6.39,8.7Z" style="fill:#f7a9a0;"></path><path d="M527.7,376.13c.72,1.74,1.43,3.49,2.13,5.2,5.16,12.69,8.94,23.73,9.5,23.81,.38,.06,1.67-.27,3.64-.91,.38-.13,.8-.27,1.24-.42,.29-.11,.59-.2,.91-.31,0,0,.01,0,.01-.01,.31-.11,.63-.22,.96-.33,0-.01,.01-.01,.01-.01,.66-.24,1.37-.49,2.11-.77,1.12-.41,2.32-.87,3.6-1.35,.36-.14,.73-.28,1.1-.42,3.76-1.44,8.06-3.14,12.61-4.96,.41-.17,.81-.33,1.23-.5,1.18-.47,2.36-.95,3.56-1.43,1.07-.44,2.15-.88,3.24-1.33,18.47-7.54,37.71-15.81,38.78-16.76,1.4-1.21-.48-4.38-2.93-6.59-.28-.25-.57-.49-.86-.71-.59-.45-1.19-.82-1.76-1.09-.18-.09-.37-.16-.56-.22-.1-.04-.19-.06-.29-.1-.77-.22-2.8-.43-5.51-.61-.2-.02-.42-.03-.63-.04-.39-.03-.79-.05-1.2-.07-.84-.05-1.74-.11-2.66-.15-.46-.03-.93-.05-1.41-.07-.47-.02-.95-.04-1.44-.06-.48-.03-.97-.05-1.46-.07-2.96-.13-6.01-.25-8.78-.33-.46-.02-.92-.03-1.36-.05-.22,0-.45-.01-.66-.02-.65-.02-1.28-.04-1.88-.05-.2-.01-.4-.02-.59-.02-.38-.01-.76-.02-1.12-.03-.35-.01-.69-.02-1.02-.03-1.14-.03-2.06-.06-2.71-.07-.65-.02-1.01-.03-1.01-.03l-2.7-6.56-42.1,17.5Z" style="fill:#ebebeb;"></path></g><g><path d="M612.6,375.48c-2.03,1.77-70.05,30.79-73.3,30.24-1.23-.2-5.12-11.35-9-23.23l42.63-17.78s29.8,1.11,33.3,2.1c3.49,.99,8.4,6.89,6.38,8.66Z" style="fill:#263238;"></path><g><g><path d="M610.51,373.19c-11.41,4.45-57.03,23.46-67.98,28.72-.09,.04-.06,.1,.03,.07,11.41-4.16,56.87-23.54,68.03-28.61,.24-.11,.16-.28-.08-.18Z" style="fill:#FFC73C;"></path><path d="M600.88,366.21c-2.73,1.01-4.81,3.38-5.61,5.59-.76,2.12-1.06,4.78,0,7.09,.03,.07,.16,.02,.14-.06-1.2-4.69,1.19-10.26,5.53-12.47,.09-.04,.03-.18-.06-.14Z" style="fill:#FFC73C;"></path><path d="M576.95,364.37c-4.55,1.83-9.12,5.62-10.39,10.49-.05,.19,.22,.26,.33,.13,3.21-3.82,6.44-7.01,10.37-10.1,.28-.22,.02-.66-.31-.52Z" style="fill:#FFC73C;"></path><path d="M581.01,364.27c-4.55,1.83-9.12,5.62-10.39,10.49-.05,.19,.22,.26,.33,.13,3.21-3.82,6.44-7.01,10.37-10.1,.28-.22,.01-.65-.31-.52Z" style="fill:#FFC73C;"></path><path d="M585.07,364.17c-4.55,1.83-9.12,5.62-10.39,10.49-.05,.19,.22,.26,.33,.13,3.21-3.82,6.44-7.01,10.37-10.1,.28-.22,.02-.65-.31-.52Z" style="fill:#FFC73C;"></path><path d="M589.13,364.08c-4.55,1.83-9.12,5.62-10.39,10.49-.05,.19,.22,.26,.33,.13,3.21-3.82,6.44-7.01,10.37-10.1,.28-.22,.02-.65-.31-.52Z" style="fill:#FFC73C;"></path><path d="M540.92,389.98c-5.07,2.14-1.76,10.02,3.32,7.88,5.07-2.14,1.76-10.02-3.32-7.88Z" style="fill:#FFC73C;"></path></g><path d="M576.8,350.26c-3.09-.94-5.2,2.13-5.79,4.68-.74,3.27-.73,7.15,0,10.59,.09,.5,.2,.98,.33,1.44,.07,.2,.12,.41,.17,.6,.02,0,0,.02,0,.02l.06,.15c.06,.17,.1,.33,.15,.49,.04,.09,.13,.1,.2,.06,.13,.19,.4,.31,.64,.24,.12-.01,.23-.08,.32-.21,.63-.98,1.31-1.98,1.99-2.98,.13-.16,.23-.33,.35-.51,1.64-2.45,3.22-4.97,3.97-7.8,.65-2.43,.5-5.88-2.41-6.77Zm-1.54,11.92c-.52,.86-1.07,1.72-1.59,2.57-.45,.73-.89,1.45-1.33,2.19-.06,.1-.12,.21-.17,.31-.05,.09-.11,.19-.16,.28,0-.1-.02-.21-.03-.31t0-.04c-.04-.68-.07-1.34-.13-2.01-.11-1.8-.2-3.6-.1-5.42,.06-1.24,.14-2.52,.37-3.73,.36-1.9,3.23-7.54,5.73-2.8,1.38,2.6-1.3,6.85-2.58,8.97Z" style="fill:#FFC73C;"></path><path d="M572.6,367.56c.04-.07,.02-.15-.07-.2-.13-.05-.25-.09-.37-.11-.06-.05-.11-.06-.15-.06-.02,0-.03-.02-.04,0-.22-.1-.42-.16-.64-.21-.78-.25-1.59-.44-2.4-.58-3.2-.61-6.68-.64-9.68-.02-2.57,.53-5.67,2.58-4.79,5.67,.03,.11,.07,.22,.12,.32,.98,2.63,4.26,2.81,6.61,2.23,2.46-.62,4.73-1.86,6.91-3.21,1.5-.94,2.98-1.95,4.46-2.86h.03c.38-.25,.28-.74,0-.97Zm-6.17,3.2c-2.15,1.26-6.46,3.84-9.05,2.42-.79-.44-1.28-.88-1.54-1.32-1.32-2.14,2.87-4.07,4.47-4.34,1.22-.22,2.5-.27,3.75-.32,.95-.03,1.89,0,2.84,.05,1.54,.07,3.07,.22,4.61,.33h.02c.09,.02,.2,.01,.29,.03-.09,.04-.16,.09-.24,.14-.22,.11-.42,.22-.64,.34-1.52,.86-2.99,1.79-4.51,2.67Z" style="fill:#FFC73C;"></path></g></g></g><g><path d="M562.69,344.23l-41.66,16.13s-14.54-27.38-24.56-59.01c-6.54-20.65-13.53-43.52-14.37-44.92-2.78-4.63-51.3-69.67-66.5-86.68-18.44-20.64-1.78-49.03-1.78-49.03l56.07,.04,.28,20.23c4.43,7.13,50.58,74.69,56.16,91.2,9.74,28.83,36.36,112.05,36.36,112.05Z" style="fill:#f7a9a0;"></path><g><path d="M413.82,120.72h56.07s1.33,19.66,1.38,20.27c.05,.61,32.22,47.61,31.72,48.49-.5,.89-20.21,13.66-22.7,15.05-7.15,3.99-28.4,11.43-29.51,11.22s-31.59-41.24-33.67-43.23c-2.08-2-21.12-18.04-3.29-51.8Z" style="fill:#FFC73C;"></path><path d="M459.61,131.78c4.32,2.67,8.21,5.87,11.66,9.6-4.32-2.66-8.21-5.87-11.66-9.6h0Z" style="fill:#37474f;"></path><g><path d="M457.75,213.68c-.7,.24-1.36,.46-1.98,.67-8.9-12.86-19.28-26.61-28.5-38.82-3.94-5.22-7.67-10.16-10.99-14.65-4.62-6.23-5.41-15.51-2.37-27.6,1.29-5.12,3-9.62,4.24-12.56h2.19c-3.17,7.33-10.76,27.77-2.46,38.97,3.32,4.48,7.05,9.41,10.99,14.64,9.34,12.37,19.87,26.33,28.88,39.35Z" style="fill:#455a64;"></path><path d="M462.64,211.94c-.66,.24-1.3,.48-1.94,.71-8.89-12.83-19.24-26.54-28.44-38.73-3.94-5.23-7.67-10.16-11-14.65-4.55-6.14-5.39-15.35-2.44-26.64,1.28-4.9,2.99-9.16,4.22-11.91h2.21c-3.07,6.69-10.74,26.07-2.38,37.36,3.32,4.48,7.05,9.41,10.99,14.64,9.31,12.33,19.8,26.23,28.78,39.22Z" style="fill:#455a64;"></path></g></g></g></g></g><g><g><g><path d="M454.3,20.98c-.63-.23-1.31-.34-1.99-.3-3.07,.16-5.44,2.45-7.1,4.82-1.76,2.55-3.06,5.68-5.62,7.55-1,.73-2.21,1.25-3.46,1.13-1.41-.13-2.45-1.1-3.25-2.2-.85-1.15-1.6-2.7-3.08-3.15-1.22-.38-2.54,.15-3.51,.89-2.51,1.94-2.85,5.56-4.34,8.19-1.58,2.82-4,5.11-6.91,6.54-2.71,1.34-5.81,1.81-8.8,1.44-1.46-.18-2.92-.56-4.26-1.15-1.51-.66-2.84-1.64-4.32-2.37-1.37-.67-3.05-1.16-4.53-.56-1.15,.46-3.86,4.14-3.77,9.72,0,.4-.72,.38-.87-.02-.3-.77-.56-1.55-.77-2.35-1.73-6.64-.17-13.86,4.25-19.14,2.36-2.82,5.39-4.97,8.79-6.34,1.88-.76,3.85-1.37,5.59-2.44,1.55-.96,2.72-2.3,3.66-3.85,1.77-2.95,2.82-6.28,5.11-8.91,2.04-2.35,4.72-4.09,7.62-5.18,6.09-2.26,12.86-1.59,18.52,1.53,5.57,3.08,13.38,16.28,13.03,16.16Z" style="fill:#263238;"></path><path d="M454.1,20.91c-1.3-.29-2.65-.46-3.96-.15-1.18,.28-2.24,.92-3.14,1.73-2.01,1.82-3.1,4.28-4.25,6.68-1.08,2.25-2.35,4.58-4.6,5.85-.95,.54-2.07,.89-3.17,.83-1.25-.07-2.28-.72-3.12-1.63-1.52-1.65-2.91-4.22-5.5-4.1-2.51,.11-3.96,2.78-5.03,4.7-2.61,4.69-5.29,11.15-11.37,11.95-3.08,.4-6.42-.46-9.28-1.55-2.06-.79-4.66-1.8-6.76-.6-.08,.04,0,.15,.08,.11,2.24-1.24,4.67,.23,6.74,1.12,2.43,1.04,5.13,1.78,7.79,1.83,2.74,.05,5.2-1.02,7.2-2.86,2.04-1.87,3.44-4.25,4.72-6.68,.65-1.24,1.28-2.5,1.97-3.73,.62-1.1,1.33-2.24,2.38-2.98,1.12-.79,2.44-.73,3.55,.05,1.09,.76,1.81,1.88,2.68,2.86,.77,.88,1.66,1.65,2.8,1.99,.92,.27,1.89,.25,2.81,.03,2.12-.51,3.84-1.95,5.04-3.73,1.7-2.52,2.51-5.52,4.25-8.01,.89-1.27,2.03-2.45,3.47-3.08,1.51-.67,3.06-.48,4.65-.31,.21,.02,.26-.28,.05-.33Z" style="fill:#263238;"></path><path d="M440.29,2.16c-5.64-3.24-12.76-2.67-18.23,.6-3.07,1.84-5.56,4.46-7.45,7.48-1.76,2.82-3.18,5.94-5.53,8.34-2.6,2.66-6.2,3.41-9.56,4.66-2.73,1.01-5.18,2.58-7.23,4.64-3.94,3.95-6.25,9.49-6.2,15.08,0,.71,.04,1.42,.12,2.13,0,.09,.15,.07,.14-.01-.55-5.59,1.6-11.24,5.3-15.4,1.82-2.05,4.04-3.74,6.52-4.89,3.08-1.42,6.53-1.93,9.42-3.76,2.71-1.72,4.42-4.54,5.97-7.27,1.69-2.98,3.37-5.91,5.99-8.19,4.85-4.24,11.75-5.98,17.92-3.82,6.88,2.41,11.04,8.76,14.13,14.99,.41,.83,.82,1.67,1.22,2.51,.05,.1,.2,.04,.16-.06-2.83-6.5-6.3-13.37-12.68-17.03Z" style="fill:#263238;"></path></g><path d="M456.48,17.87c-.55-.95-1.98-1.73-2.68-1.53-.71,.21-3.99,4.92-3.66,6.31,.33,1.39,2.95,1.16,2.95,1.16l3.39-5.95Z" style="fill:#FFC73C;"></path></g><g><g><path d="M471.56,111.89l-1.67,8.87h-54.87s8.58-44.96,28.67-58.3c10.05-6.67,19.21-3.74,23.67,3.74,1.13,1.89,12.62,21.73,12.29,31.25-.31,8.39-8.09,14.45-8.09,14.45Z" style="fill:#f7a9a0;"></path><path d="M479.65,97.44c-.29,7.86-7.17,13.69-8.02,14.39-.02,.02-.05,.03-.06,.05-.01,.01-.02,.01-.02,.01l-53.48-3.61c1.24-4.36,2.86-9.49,4.91-14.77,3.28,.23,12.47-.08,15.91-.72,2.33-.44,7.49-8.21,14.18-7.42,6.69,.79,13.3,7.42,13.3,7.42,4.26-4.42,8.77-5.83,10.87-6.27,1.49,4.07,2.51,7.99,2.41,10.92Z" style="fill:#FFC73C;"></path></g><g><path d="M467.36,66.19c-.29-.5-.6-.97-.94-1.41,1.58,4.58,4.57,14.69,.72,15.69-4.22,1.09-14.87-15.43-18.16-20.71-1.72,.6-3.49,1.49-5.29,2.69-14.62,9.71-24.06,34.81-28.1,47.76l55.43,5.17,.52-3.49s7.78-6.06,8.1-14.45c.33-9.52-11.16-29.35-12.28-31.25Zm-20.91,22c-2.84,6.14-9.31,10.9-13.61,10.32-3.51-.48-5.17-5.26-3.76-11.35,2.41-10.39,12.66-25.71,17.32-25.35,5.36,.42,4.76,16.15,.05,26.38Z" style="fill:#263238;"></path><g><path d="M453.81,104.44c2.98,.56,5.95,1.24,8.82,2.32,1.43,.54,2.82,1.15,4.22,1.81,.69,.33,1.39,.62,2.1,.91,.72,.3,1.5,.59,2.27,.66,.07,0,.06,.13,0,.13-.75-.02-1.47-.04-2.21-.19-.71-.13-1.4-.36-2.08-.61-1.45-.53-2.88-1.14-4.33-1.69-2.92-1.1-5.84-2.21-8.82-3.05-.14-.04-.09-.32,.05-.3Z" style="fill:#37474f;"></path><path d="M446.2,107.19c2.48-.15,5.01-.16,7.48,.03,1.25,.09,2.48,.28,3.71,.5,.59,.11,1.17,.22,1.76,.35,.64,.14,1.27,.38,1.92,.51,.07,.01,.06,.14,0,.13-.61-.1-1.24-.08-1.86-.13-.62-.06-1.24-.12-1.86-.17-1.24-.11-2.48-.21-3.72-.34-2.48-.25-4.95-.48-7.44-.63-.13,0-.11-.24,.02-.25Z" style="fill:#37474f;"></path></g></g></g><g><g><path d="M453.09,60.44c.2,1.22,5.44,9.38,10.94,9.47,1.79,.03,2.38-9.75,2.38-9.75l.21-.71,2.91-9.97-11.39-8.38-1.65-1.12s-.61,2.78-1.35,6.25c-.03,.16-.07,.32-.1,.49-.05,.2-.09,.38-.13,.56-.12,.52-.23,1.05-.34,1.57-.08,.4-.16,.79-.23,1.22-.08,.42-.15,.84-.23,1.26-.71,4.2-1.09,8.58-1.01,9.1Z" style="fill:#f7a9a0;"></path><path d="M455.13,46.23c2.38,8.23,8.61,11.92,11.49,13.22l2.91-9.97-11.39-8.38-1.65-1.12s-.61,2.78-1.35,6.25Z" style="fill:#263238;"></path></g><g><path d="M485.64,33.26c1.77,18.14-8.89,21.25-12.8,21.63-3.55,.34-15.68,1.06-19.32-16.79-3.64-17.86,4.23-24.42,12.31-25.63,8.08-1.22,18.04,2.66,19.81,20.8Z" style="fill:#f7a9a0;"></path><g><path d="M482.47,30.63c-.43-.02-.82-.1-1.25-.16-.48-.07-.87-.07-1.24-.41-.2-.18-.22-.58-.06-.79,.36-.49,.97-.56,1.55-.5,.63,.06,1.1,.27,1.54,.72,.43,.43,.03,1.16-.54,1.14Z" style="fill:#263238;"></path><path d="M470.53,31.46c.42-.07,.8-.21,1.22-.32,.47-.13,.85-.19,1.18-.57,.18-.21,.14-.6-.04-.79-.43-.44-1.04-.42-1.6-.29-.61,.14-1.05,.41-1.44,.91-.37,.48,.13,1.16,.69,1.06Z" style="fill:#263238;"></path><g><g><path d="M473.27,35.06s-.09,.07-.08,.12c.17,1.23,.15,2.67-.92,3.19-.03,.02-.02,.08,.02,.07,1.34-.33,1.35-2.24,.99-3.38Z" style="fill:#263238;"></path><path d="M472.03,33.88c-2,.05-1.75,4.05,.11,4,1.82-.05,1.57-4.05-.11-4Z" style="fill:#263238;"></path></g><path d="M471.26,34.14c-.33,.25-.65,.67-1.07,.74-.48,.08-.88-.32-1.22-.7-.04-.04-.07,0-.07,.05,.04,.77,.38,1.53,1.21,1.6,.76,.06,1.25-.66,1.39-1.44,.03-.14-.11-.35-.25-.25Z" style="fill:#263238;"></path></g><g><g><path d="M480.04,34.38s.1,.05,.1,.1c.03,1.24,.27,2.66,1.42,3.01,.04,.01,.04,.07,0,.07-1.38-.12-1.68-2-1.51-3.18Z" style="fill:#263238;"></path><path d="M481.08,33.02c1.98-.26,2.36,3.72,.53,3.97-1.81,.24-2.19-3.75-.53-3.97Z" style="fill:#263238;"></path></g><path d="M481.93,33.21c.34,.18,.68,.54,1.06,.52,.44-.01,.72-.47,.96-.92,.02-.05,.06-.02,.07,.04,.09,.76-.08,1.58-.8,1.79-.66,.2-1.21-.41-1.46-1.15-.05-.14,.04-.36,.17-.29Z" style="fill:#263238;"></path></g><path d="M473.44,44.71c.29,.3,.57,.71,1.02,.76,.43,.05,.94-.13,1.34-.28,.04-.01,.08,.03,.05,.06-.33,.47-1.02,.75-1.59,.63-.56-.11-.82-.61-.95-1.12-.02-.07,.08-.1,.12-.05Z" style="fill:#263238;"></path><path d="M478.49,40.07s.31,1.84,.34,2.72c0,.08-.21,.13-.5,.15-.01,0-.02,.01-.03,0-1.54,.29-3.11-.2-4.08-1.43-.06-.08,.05-.18,.13-.12,1.18,.81,2.46,.99,3.83,.97,.05-.24-.64-3.14-.5-3.16,.48-.06,1.43,.24,2,.39-.54-3.86-1.7-7.6-2.18-11.46-.01-.14,.18-.19,.23-.06,1.49,3.84,2.21,8.27,2.87,12.24,.09,.49-1.73-.11-2.09-.24Z" style="fill:#263238;"></path><g><path d="M477.42,42.73s-.7,.96-1.66,1.32c-.36,.13-.74,.19-1.14,.09-.83-.21-.86-.97-.72-1.62,.12-.54,.36-1,.36-1,0,0,1.22,1.12,3.16,1.21Z" style="fill:#263238;"></path><path d="M475.76,44.05c-.36,.13-.74,.19-1.14,.09-.83-.21-.86-.97-.72-1.62,.89,.08,1.78,.67,1.86,1.53Z" style="fill:#ff9cbd;"></path></g></g><g><path d="M454.11,37.11c1.97-.22,6.86-5.93,6.54-15.5,0,0-.3,8.62-.89,9.91-.58,1.29,2.73-3.21,2.58-10.94,0,0,4.43,2.87,8.12,3.71,3.69,.84,5.92,.69,6.17,.41,.25-.28-5.2-1.7-6.73-3.29,0,0,9.92,4.02,14.4,4.13,.52,.01-.66-8.23-7.79-12.39-7.13-4.16-16.57-1.15-19.36,1.84,0,0-2.44,1.12-4.68,5.57-2.86,5.67-.47,16.79,1.65,16.55Z" style="fill:#263238;"></path><path d="M462.49,19.58c-.05-.21-.38-.19-.34,.04,.52,3.62,.03,6.82-.89,10.34-.01,.05,.07,.07,.09,.03,1.27-3.45,1.99-6.76,1.15-10.4Z" style="fill:#263238;"></path><path d="M475.27,25.35c-5.22-.35-9.77-1.77-13.44-5.64-.08-.08-.22,0-.15,.11,3.08,4.28,8.52,5.83,13.59,5.73,.11,0,.11-.19,0-.19Z" style="fill:#263238;"></path></g><g><path d="M456.22,29.73c-1.8,1.94-3.61,4.32-4.71,6.04,0,0-1.6-3.36-1.24-5.66,0,0,4.93-6.87,11.94-11.19l-6,10.81Z" style="fill:#FFC73C;"></path><g><path d="M453.34,33.19s8.38-15.66,13.45-19.21c5.07-3.55,16.73-5.95,24.22-2.54,5.84,2.66-6.9,11.97-6.9,11.97,0,0-1.14-2.52-3.01-3.29-3.64-1.48-10.3,.08-14.05,1.75-4.72,2.11-13.71,11.32-13.71,11.32Z" style="fill:#FFC73C;"></path><path d="M453.34,33.19s8.38-15.66,13.45-19.21c5.07-3.55,16.73-5.95,24.22-2.54,5.84,2.66-6.9,11.97-6.9,11.97,0,0-1.14-2.52-3.01-3.29-3.64-1.48-10.3,.08-14.05,1.75-4.72,2.11-13.71,11.32-13.71,11.32Z" style="opacity: .2;"></path></g></g><g><path d="M457.13,38.95s-3.76-5.83-6.4-4.51c-2.63,1.32,.05,9.67,3.04,10.91,2.99,1.24,4.19-1.5,4.19-1.5l-.83-4.9Z" style="fill:#f7a9a0;"></path><path d="M451.56,36.81s-.06,.06-.02,.08c2.09,.94,3.14,2.95,3.84,5.02-.6-.81-1.45-1.27-2.53-.56-.06,.04,0,.13,.05,.12,.88-.15,1.5,.02,2.06,.74,.4,.51,.66,1.14,.94,1.72,.09,.19,.44,.1,.37-.12,0-.02-.01-.03-.02-.05,.15-2.71-1.81-6.57-4.71-6.95Z" style="fill:#263238;"></path></g></g></g><g><g><path d="M438.97,61.81c-26.39,5.14-50.18,23.08-51.99,30.9-2.61,11.21,15.7,41.98,21.54,54.01,1.82,3.75,25.68-19.1,23.71-23.1-1.89-3.82-16.67-25.17-16.66-25.71,.02-1.16,23.15-19.95,29.06-24.64,5.3-4.21,8.69-14.26-5.66-11.46Z" style="fill:#f7a9a0;"></path><g><path d="M459.99,153.19c-1.35,3.17-4.91,2.82-4.91,2.82,0,0,.5,2.71-.96,4.91-1.68,2.52-6.37,.99-6.37,.99,0,0-.06,2.85-1.84,5.02-1.85,2.25-6.81,1.38-6.81,1.38,0,0-1.51,2.62-4.4,3.39-4.94,1.32-10.64-4.02-14.3-7.37-3.66-3.35-10.9-16.29-12.53-18.62l21.32-23.67s20.68,10.37,24.43,14.92c3.15,3.84,7.91,12.65,6.38,16.21Z" style="fill:#f7a9a0;"></path><g><path d="M455.26,155.49c-2.37-4.88-6.06-8.8-9.52-12.91-.08-.09-.22,.03-.14,.12,3.49,4.05,6.12,8.75,9.44,12.93,.09,.12,.28,0,.22-.14Z" style="fill:#263238;"></path><path d="M447.95,161.54c-.57-1.09-1.5-1.99-2.33-2.88-.89-.96-1.8-1.91-2.73-2.84-1.85-1.86-3.74-3.69-5.69-5.45-.09-.08-.23,.03-.14,.12,1.84,1.86,3.65,3.75,5.41,5.68,.88,.97,1.75,1.95,2.62,2.93,.81,.91,1.58,1.94,2.57,2.66,.15,.11,.36-.07,.27-.23Z" style="fill:#263238;"></path><path d="M439.02,168.24c-.46-.97-1.47-1.75-2.23-2.48-.86-.83-1.72-1.67-2.57-2.51-1.7-1.68-3.4-3.36-5.04-5.1-.08-.09-.22,.03-.14,.12,1.66,1.78,3.29,3.58,4.97,5.34,.82,.87,1.65,1.73,2.48,2.58,.71,.73,1.51,1.72,2.45,2.14,.05,.02,.1-.04,.08-.09Z" style="fill:#263238;"></path></g></g></g><path d="M425.98,112.93c-.86-1.22-1.72-2.43-2.6-3.63-.94-1.29-2.01-2.42-3.07-3.6-.03-.04-.09,0-.06,.05,.83,1.25,1.55,2.55,2.44,3.76,.9,1.24,1.78,2.5,2.63,3.78,1.68,2.51,3.48,4.93,5.14,7.44,.05,.08,.2,0,.15-.09-1.46-2.63-2.89-5.24-4.63-7.71Z" style="fill:#263238;"></path><path d="M437.76,79.78c-.42,.21-.84,.43-1.26,.65,1.74-1.47,3.41-3.01,5.03-4.61,.04-.03-.02-.09-.06-.07-2.08,1.54-4.12,3.11-6.11,4.75-.94,.78-1.91,1.53-2.82,2.35-1.03,.92-2.01,1.87-3.09,2.72-.13,.1,.01,.31,.14,.21,1.03-.82,2.12-1.54,3.18-2.31,.92-.68,1.8-1.41,2.68-2.14,.32-.13,.64-.27,.95-.43,.51-.27,1.01-.54,1.49-.84,.97-.61,1.91-1.25,2.87-1.88,.01,0,0-.03-.01-.02-.97,.59-1.97,1.11-2.98,1.62Z" style="fill:#263238;"></path></g></g></g></g><g id="freepik--character-1--inject-121"><g id="freepik--capa-4--inject-121"></g><g><g><path d="M260.49,61.63c-27.51,6.99-51.65,17.69-54.4,25.93-3.69,11.09,.4,38.4,3.83,52.38,1.01,4.11,32.82-4.39,31.74-8.78-1.3-5.31-8.45-32.66-8.41-33.21,.08-1.17,27.28-19.04,33.52-23.74,10.41-7.84,5.93-15.68-6.28-12.57Z" style="fill: rgb(247, 169, 160);"></path><path d="M266.77,74.2c-6.24,4.69-33.44,22.57-33.52,23.73-.02,.58,7.12,27.91,8.42,33.21,1.07,4.4-30.74,12.9-31.74,8.79-1.34-5.48-2.8-13-3.84-20.78-1.61-12.1-2.25-24.85,0-31.6,2.75-8.24,26.89-18.93,54.4-25.93,.37-.09,.73-.18,1.08-.25,11.39-2.37,15.3,5.22,5.2,12.82Z" style="fill: rgb(247, 169, 160);"></path><g><path d="M216.15,160.65c-3.85-5.89-7.02-21-6.38-24.94,.64-3.94,26.16-10.19,29.37-7.63,3.21,2.55,14.64,23.37,13.95,30.52-.69,7.14-32.95,8.16-36.94,2.06Z" style="fill: rgb(247, 169, 160);"></path><g><path d="M251.93,147.39c-3.36-1.61-3.34,3.27-3.34,3.27,0,0-1.73-7.02-5.83-7.34-3.96-.3-3.72,5.6-3.71,6.02-.09-.37-1.85-6.78-6.01-6.68-4.32,.11-3.07,5.99-2.99,6.37-.2-.32-2.9-4.53-6.05-3.74-5.4,1.37,1.22,12.33-.04,16.66,0,0-7.58-1.3-7.81-1.3,0,0,6.09,10.56,12.02,11.93,3.13,.73,4.42-2.05,4.42-2.05,0,0,1.59,3.62,4.86,3.64,1.68,0,3.19-2.68,3.19-2.68,0,0,1.39,2.85,4.31,2.68,2.33-.12,3.48-2.79,3.48-2.79,0,0,2.6,2.11,4.94,1.22,4.72-1.8,5.74-21.76-1.45-25.22Z" style="fill: rgb(247, 169, 160);"></path><g><path d="M248.69,171c0,.07,.08,.09,.1,.03,1.94-6.48,2.08-14.2-.17-20.63-.07-.21-.45-.18-.41,.07,1.05,7.07,1.42,13.42,.48,20.54Z" style="fill:#263238;"></path><path d="M240.69,171.6c-.01,.08,.12,.1,.14,.02,1.96-6.69,1.88-15.39-1.58-22.49-.12-.24-.47-.34-.35-.05,1.94,4.9,2.68,16.13,1.8,22.53Z" style="fill:#263238;"></path><path d="M229.64,148.61c3.06,6.94,3.58,14.16,3.06,21.65,0,.1,.13,.1,.16,.02,1.26-3.6,1.09-8.41,.65-12.14-.42-3.58-1.53-6.72-3.62-9.64-.08-.11-.31-.04-.24,.11Z" style="fill:#263238;"></path></g><path d="M248.6,150.66c-.46-1.32-1.03-2.6-1.72-3.8-.69-1.18-1.55-2.33-2.69-2.94-.56-.3-1.19-.41-1.78-.26-.6,.16-1.19,.44-1.63,.87-.9,.84-1.22,2.23-1.16,3.44l.16,3.05-1.21-2.81c-.53-1.23-1.26-2.45-2.16-3.43-.89-.98-2.04-1.72-3.24-1.69-1.26,0-2.28,.7-2.6,1.9-.36,1.17-.24,2.61,.06,3.87l.84,3.52-1.94-3.04c-.52-.82-1.19-1.64-1.92-2.31-.73-.66-1.58-1.21-2.46-1.33-.86-.12-1.8,.23-2.24,.93-.48,.73-.56,1.79-.54,2.8,.07,2.06,.58,4.12,.99,6.2,.21,1.04,.42,2.08,.59,3.13,.14,1.04,.3,2.15,0,3.18,.2-1.05-.08-2.1-.29-3.12-.24-1.03-.53-2.04-.82-3.06-.58-2.04-1.14-4.1-1.34-6.28-.06-1.08-.09-2.26,.54-3.37,.65-1.15,2.03-1.67,3.25-1.5,1.25,.16,2.25,.84,3.09,1.57,.84,.76,1.54,1.58,2.17,2.54l-1.1,.48c-.37-1.49-.54-2.99-.11-4.57,.22-.78,.71-1.56,1.44-2.05,.73-.5,1.55-.69,2.38-.7,1.71,0,3.13,1.03,4.1,2.14,1,1.15,1.74,2.41,2.31,3.81l-1.05,.24c-.03-1.55,.45-3.12,1.65-4.18,.6-.52,1.32-.82,2.07-.97,.78-.16,1.61,.04,2.26,.43,1.31,.81,2.05,2.1,2.68,3.35,.62,1.27,1.08,2.61,1.39,3.97Z" style="fill:#263238;"></path></g><g><path d="M241.7,131.27s24.85,16.52,13.63,23.07c-3.33,1.95-19.34,5.96-20.21,2.76-1.12-4.13,5.25-7.06,9.54-8.26,0,0-9.24-4.43-8.08-11.79,.73-4.61,5.12-5.79,5.12-5.79Z" style="fill: rgb(247, 169, 160);"></path><path d="M256.24,153.74c-1.18,.97-2.59,1.6-3.99,2.18-1.41,.58-2.87,1.02-4.34,1.41-2.96,.73-5.91,1.37-9.01,1.59-.78,.04-1.57,.05-2.42-.14-.42-.1-.88-.27-1.26-.57-.2-.15-.35-.3-.53-.55-.14-.23-.25-.46-.31-.69-.27-.93-.07-1.86,.28-2.65,.38-.78,.92-1.42,1.51-1.98,1.19-1.11,2.58-1.87,4-2.49,1.42-.64,2.89-1.09,4.36-1.5l-.07,.99c-1.07-.55-2.02-1.19-2.93-1.91-.91-.72-1.76-1.52-2.5-2.41-.74-.89-1.36-1.89-1.8-2.96-.45-1.06-.7-2.21-.71-3.34,.17,1.12,.53,2.2,1.05,3.19,.52,.99,1.21,1.87,1.97,2.67,.76,.81,1.61,1.53,2.52,2.16,.9,.63,1.88,1.21,2.85,1.64l1.24,.55-1.31,.43c-1.41,.47-2.83,.93-4.15,1.58-1.32,.63-2.62,1.34-3.63,2.32-.99,.94-1.76,2.25-1.45,3.37,.19,1.01,1.85,1.15,3.26,1.1,1.46-.04,2.95-.24,4.44-.44,1.49-.2,2.97-.42,4.44-.72,2.91-.65,5.9-1.29,8.51-2.82Z" style="fill:#263238;"></path></g></g><path d="M266.77,74.2c-6.24,4.69-33.44,22.57-33.52,23.73-.02,.58,7.12,27.91,8.42,33.21,0,.03,.02,.06,.02,.1l.02,.02s23.39,15.56,14.53,22.47c1.98,7.19,.49,17.59-2.86,18.86-2.34,.9-4.94-1.21-4.94-1.21,0,0-1.16,2.67-3.48,2.79-2.48,.14-3.86-1.92-4.21-2.52-.04-.01-.06-.03-.06-.06v-.03c-.03-.05-.04-.07-.04-.07,0,0-1.51,2.69-3.19,2.68-3.28-.03-4.86-3.64-4.86-3.64,0,0-1.3,2.77-4.43,2.04-5.75-1.34-11.64-11.28-12-11.9,0-.02-.02-.03-.02-.03-3.03-4.61-5.63-14.93-6.31-21.05-1.31-5.45-2.73-12.81-3.75-20.44l55.48-57.77c11.39-2.37,15.3,5.22,5.2,12.82Z" style="opacity: .2;"></path></g><g><g><g><g><path d="M34.76,267c-.15-2.7,19.31-73.44,21.76-75.66,.92-.86,58.7,16.64,58.7,16.64l-11.45,43.48-36.25-9.38s-19.03,23.1-21.98,25.26c-2.94,2.14-10.65,2.37-10.79-.33Z" style="fill: rgb(247, 169, 160);"></path><path d="M34.77,267c-.16-2.7,19.3-73.45,21.75-75.66,.44-.41,18.57,4.77,29.41,7.91l-11.83,44.53-6.57-1.7s-19.02,23.09-21.98,25.25c-2.94,2.15-10.66,2.37-10.79-.33Z" style="fill:#ebebeb;"></path></g><g><path d="M34.72,267.31c-.15-2.69,18.93-74.13,21.36-76.35,.92-.85,11.63,2.14,23.38,6.4l-11.81,45.35s-19.24,22.78-22.17,24.92c-2.93,2.13-10.6,2.37-10.75-.32Z" style="fill:#FFC73C;"></path><g><g><path d="M37.82,267.08c3.53-11.73,16.68-59.36,19.28-71.23,.02-.1-.04-.11-.07-.02-3.76,11.55-16.51,59.29-19.4,71.19-.06,.25,.12,.3,.19,.05Z" style="fill:#263238;"></path><path d="M49.25,263.8c.88-2.77,.31-5.87-.94-7.86-1.2-1.91-3.11-3.78-5.58-4.37-.07-.02-.11,.11-.04,.14,4.44,1.94,7.34,7.26,6.41,12.04-.02,.1,.12,.14,.15,.04Z" style="fill:#263238;"></path><path d="M65.44,246.09c1.36-4.71,1.2-10.65-1.86-14.64-.12-.16-.34,.02-.3,.18,1.03,4.88,1.55,9.39,1.56,14.39,0,.35,.51,.42,.6,.08Z" style="fill:#263238;"></path><path d="M63.02,249.34c1.36-4.71,1.2-10.65-1.86-14.64-.12-.15-.34,.02-.3,.18,1.03,4.88,1.55,9.39,1.56,14.39,0,.35,.51,.42,.6,.08Z" style="fill:#263238;"></path><path d="M60.59,252.6c1.36-4.71,1.2-10.65-1.86-14.64-.12-.16-.34,.02-.3,.18,1.03,4.88,1.55,9.39,1.56,14.39,0,.35,.51,.42,.6,.08Z" style="fill:#263238;"></path><path d="M58.17,255.86c1.36-4.71,1.2-10.65-1.86-14.64-.12-.16-.34,.02-.3,.18,1.03,4.88,1.55,9.39,1.56,14.39,0,.35,.51,.42,.6,.08Z" style="fill:#263238;"></path><path d="M67.48,201.94c1.44-5.31-6.8-7.56-8.25-2.24-1.44,5.31,6.8,7.56,8.25,2.24Z" style="fill:#263238;"></path></g><path d="M76.65,254.67c2.65-1.85,1.53-5.4-.12-7.44-2.12-2.6-5.18-4.98-8.34-6.53-.44-.24-.9-.44-1.34-.63-.2-.07-.4-.16-.58-.24-.02,.01-.02,0-.02,0l-.16-.04c-.17-.06-.32-.12-.48-.18-.09-.03-.16,.04-.17,.12-.23-.01-.49,.12-.59,.35-.06,.1-.08,.23-.03,.38,.38,1.1,.75,2.25,1.13,3.4,.05,.2,.12,.39,.18,.59,.91,2.8,1.93,5.6,3.69,7.93,1.51,2.01,4.32,4.02,6.81,2.28Zm-8.44-8.56c-.36-.94-.7-1.9-1.04-2.84-.29-.81-.59-1.6-.9-2.39-.04-.11-.09-.23-.13-.32-.04-.1-.08-.21-.12-.3,.09,.06,.17,.11,.26,.17t.03,.02c.56,.39,1.1,.77,1.66,1.14,1.49,1.02,2.96,2.06,4.33,3.26,.94,.81,1.9,1.66,2.71,2.59,1.27,1.46,3.94,7.19-1.33,6.24-2.89-.52-4.6-5.24-5.47-7.56Z" style="fill:#263238;"></path><path d="M65.61,240.7c.03,.08,.11,.11,.2,.07,.12-.07,.22-.14,.31-.22,.07-.01,.12-.05,.14-.08,.02-.01,.04,0,.02-.03,.22-.11,.38-.24,.56-.38,.68-.46,1.33-.98,1.93-1.53,2.45-2.14,4.62-4.87,5.98-7.61,1.17-2.35,1.46-6.05-1.52-7.27-.11-.05-.22-.07-.33-.1-2.67-.85-4.84,1.62-5.84,3.83-1.03,2.32-1.45,4.87-1.73,7.42-.18,1.76-.3,3.55-.49,5.27v.03c-.06,.44,.39,.67,.75,.59Zm1.28-6.83c.34-2.47,.96-7.46,3.67-8.61,.84-.35,1.48-.47,1.99-.4,2.5,.28,1.44,4.77,.67,6.19-.58,1.1-1.33,2.14-2.06,3.14-.56,.77-1.16,1.49-1.79,2.2-1.01,1.17-2.07,2.28-3.1,3.43h-.02c-.07,.08-.13,.16-.19,.23,.03-.09,.03-.18,.04-.28,.05-.24,.09-.47,.12-.71,.26-1.73,.43-3.46,.67-5.19Z" style="fill:#263238;"></path></g></g></g><g><path d="M276,133.44s.24,36.16-6.84,43.97c0,0-44.51,82.8-69.67,87.69-21.31,4.14-120.03-18.1-120.03-18.1l11.97-46.81s39.67,3.58,61.57,5.55c14.15,1.27,29.92,4.74,30.37,4.07,11.85-17.59,28.93-37.32,28.27-39.23-.81-2.34-.52-10.53,.62-14.94,1.85-7.21,6.05-22.21,6.05-22.21h57.69Z" style="fill:#37474f;"></path><g><path d="M228.36,160.97c0-3.13,4.77-19.57,7.13-27.53h-1.07c-2.42,8.11-7.1,24.27-7.1,27.53,0,3.9,.94,9.8,1.15,11.01-14.88,20.86-37.31,51.99-39.24,53.81-.9,0-6.36-.81-12.09-1.69-9.27-1.43-21.98-3.38-28-3.66-7.7-.36-44.44-3.61-61.57-5.13l-.26,1.01c17.07,1.53,54.05,4.79,61.78,5.15,5.97,.28,18.64,2.23,27.88,3.66,7.75,1.19,11.15,1.69,12.26,1.69,.17,0,.28-.01,.35-.03,1.17-.35,25.47-34.22,39.85-54.37l.12-.18-.03-.22c-.01-.06-1.17-6.88-1.17-11.06Z" style="fill:#FFC73C;"></path><path d="M232.89,161.09c0-3.18,4.45-19.9,6.56-27.65h-1.09c-2.14,7.91-6.51,24.34-6.51,27.65,0,3.91,1.01,9.94,1.21,11.17-15.99,22.45-40.07,55.95-42.07,57.87-.92,.02-6.36-.81-12.09-1.7-9.27-1.42-21.98-3.37-27.99-3.65-8.15-.38-48.87-4-64.39-5.4l-.27,1.03c15.39,1.38,56.4,5.02,64.61,5.4,5.96,.28,18.63,2.23,27.87,3.65,7.75,1.19,11.15,1.7,12.26,1.7,.17,0,.28-.01,.35-.03,1.18-.35,27.25-36.76,42.69-58.44l.12-.18-.04-.21c-.01-.07-1.23-7.04-1.23-11.21Z" style="fill:#FFC73C;"></path></g><path d="M269.16,177.42s-13.32,24.78-29.5,48.01c-5.65-15.62-17.3-48.18-26.04-74.94,2.02-7.52,4.68-17.05,4.68-17.05h57.7s.24,36.16-6.84,43.98Z" style="opacity: .2;"></path></g></g><g><g><g><path d="M413.26,379.46c-2.12,1.68-71.2,26.41-74.42,25.68-1.23-.26-20.13-57.6-20.13-57.6l42.16-15.62,13.16,35.05s29.84,2.29,33.3,3.47c3.44,1.18,8.06,7.35,5.93,9.02Z" style="fill: rgb(247, 169, 160);"></path><path d="M413.25,379.45c-2.12,1.68-71.2,26.42-74.42,25.69-.59-.13-6.77-17.93-10.43-28.61l43.23-15.91,2.39,6.35s29.83,2.29,33.3,3.47c3.45,1.17,8.06,7.36,5.93,9.02Z" style="fill:#ebebeb;"></path></g><g><path d="M413.54,379.31c-2.11,1.67-71.54,27.12-74.76,26.41-1.22-.27-4.94-10.75-8.2-22.81l43.9-16.4s29.7,2.65,33.14,3.82c3.43,1.17,8.03,7.32,5.92,8.98Z" style="fill:#FFC73C;"></path><g><g><path d="M411.57,376.91c-11.63,3.85-58.16,20.47-69.37,25.16-.09,.04-.07,.1,.03,.07,11.61-3.56,58.01-20.57,69.41-25.05,.24-.09,.18-.27-.07-.19Z" style="fill:#263238;"></path><path d="M402.31,369.44c-2.77,.87-4.98,3.12-5.89,5.29-.87,2.08-1.31,4.72-.37,7.08,.03,.07,.15,.02,.14-.05-.96-4.75,1.72-10.18,6.17-12.17,.09-.04,.04-.17-.05-.14Z" style="fill:#263238;"></path><path d="M378.51,366.37c-4.64,1.59-9.4,5.14-10.92,9.94-.06,.19,.21,.27,.32,.15,3.4-3.65,6.79-6.67,10.88-9.55,.29-.2,.05-.65-.28-.54Z" style="fill:#263238;"></path><path d="M382.57,366.48c-4.64,1.59-9.4,5.14-10.92,9.94-.06,.19,.21,.27,.32,.15,3.4-3.65,6.79-6.67,10.88-9.54,.29-.2,.05-.65-.28-.54Z" style="fill:#263238;"></path><path d="M386.63,366.6c-4.64,1.59-9.4,5.14-10.92,9.94-.06,.19,.21,.27,.32,.15,3.4-3.65,6.79-6.67,10.88-9.54,.29-.2,.05-.65-.28-.54Z" style="fill:#263238;"></path><path d="M390.69,366.71c-4.64,1.59-9.4,5.14-10.92,9.94-.06,.19,.21,.27,.32,.15,3.4-3.65,6.79-6.67,10.88-9.54,.29-.2,.05-.65-.28-.54Z" style="fill:#263238;"></path><path d="M341.21,390.08c-5.17,1.87-2.27,9.91,2.91,8.04,5.17-1.87,2.27-9.91-2.91-8.04Z" style="fill:#263238;"></path></g><path d="M379.09,352.27c-3.04-1.1-5.3,1.86-6.02,4.37-.91,3.23-1.09,7.1-.55,10.58,.06,.5,.15,.99,.26,1.46,.06,.21,.1,.42,.14,.61,.02,0,0,.02,0,.02l.06,.15c.05,.17,.09,.33,.13,.49,.03,.09,.13,.11,.2,.07,.13,.2,.38,.33,.62,.28,.12,0,.24-.07,.33-.19,.68-.95,1.41-1.91,2.14-2.88,.14-.15,.25-.32,.38-.49,1.77-2.36,3.47-4.8,4.37-7.58,.78-2.4,.81-5.84-2.05-6.89Zm-2.15,11.83c-.57,.84-1.15,1.66-1.72,2.48-.49,.7-.97,1.4-1.44,2.11-.07,.1-.13,.21-.19,.3-.05,.09-.12,.18-.18,.27,0-.1,0-.21,0-.31t0-.04c0-.68,0-1.34-.02-2.01-.02-1.81-.01-3.6,.18-5.42,.12-1.23,.27-2.5,.56-3.71,.46-1.88,3.61-7.36,5.87-2.5,1.24,2.67-1.65,6.78-3.04,8.82Z" style="fill:#263238;"></path><path d="M374.01,369.33c.04-.07,.03-.15-.06-.21-.13-.06-.25-.1-.36-.13-.05-.05-.11-.06-.15-.07-.02,0-.03-.02-.04,0-.22-.11-.41-.18-.63-.24-.77-.29-1.57-.52-2.37-.7-3.16-.78-6.64-.98-9.66-.52-2.59,.39-5.79,2.28-5.08,5.42,.02,.11,.06,.22,.1,.33,.84,2.67,4.11,3.03,6.49,2.57,2.49-.49,4.82-1.61,7.06-2.85,1.55-.86,3.08-1.79,4.6-2.63h.03c.39-.23,.32-.72,.05-.97Zm-6.32,2.88c-2.21,1.14-6.65,3.5-9.16,1.94-.77-.48-1.23-.94-1.47-1.4-1.21-2.21,3.08-3.92,4.69-4.11,1.23-.16,2.51-.14,3.76-.12,.95,.02,1.88,.09,2.83,.2,1.54,.15,3.05,.38,4.59,.57h.02c.09,.03,.2,.02,.29,.04-.09,.03-.16,.08-.25,.13-.23,.1-.43,.19-.65,.31-1.56,.78-3.08,1.63-4.64,2.43Z" style="fill:#263238;"></path></g></g></g><g><path d="M373.07,356.64l-48.1,16.2s-30.88-67.52-37.7-104.31c-2.02-10.87-40.87-69.31-56.29-86.1-6.99-7.62-10.57-15.35-12.01-22.76-1.3-6.73-.67-26.27-.67-26.27l64.82,.04,.28,20.23c2.21,3.56,33.44,49.57,51.26,91.69,5.66,13.39,38.4,111.28,38.4,111.28Z" style="fill:#37474f;"></path><path d="M271.75,144.07c4.32,2.67,8.21,5.87,11.65,9.6-4.32-2.66-8.21-5.87-11.65-9.6h0Z" style="fill:#37474f;"></path><g><path d="M343.27,366.67l-.99,.34c-6.22-14.35-24.98-58.03-29.31-73.22-1.25-4.37-2.81-10.62-4.32-16.65-2.35-9.47-4.8-19.25-5.89-21.14-1.3-2.25-11.24-17.82-21.76-34.31-15.66-24.53-25.94-40.67-26.24-41.49-.13-.35-1.56-2.24-3.07-4.23-4.51-5.93-12.04-15.84-12.75-20.54-1.21-8.09-1.24-17.41-1.16-22.02h1.04c-.07,4.57-.05,13.83,1.15,21.86,.66,4.43,8.39,14.6,12.54,20.07,2.05,2.69,3.05,4.01,3.22,4.5,.45,1.03,14.09,22.41,26.13,41.28,10.53,16.5,20.48,32.08,21.79,34.35,1.16,2.01,3.51,11.43,6,21.4,1.5,6.03,3.06,12.27,4.3,16.62,4.33,15.17,23.12,58.91,29.31,73.17Z" style="fill:#FFC73C;"></path><path d="M338.74,368.19l-.98,.33c-6.13-14.14-25.05-58.15-29.41-73.43-1.25-4.37-2.81-10.62-4.32-16.66-2.35-9.46-4.8-19.23-5.89-21.12-1.3-2.25-11.24-17.82-21.76-34.32-15.66-24.53-25.94-40.67-26.24-41.49-.13-.35-1.55-2.23-3.07-4.22-4.51-5.93-12.04-15.85-12.75-20.55-1.34-8.94-1.23-19.41-1.14-23.33h1.05c-.1,3.85-.21,14.28,1.12,23.17,.66,4.43,8.39,14.61,12.54,20.07,2.05,2.7,3.05,4.02,3.22,4.5,.44,1.03,14.09,22.41,26.13,41.28,10.53,16.51,20.48,32.09,21.79,34.35,1.16,2.02,3.5,11.43,5.99,21.39,1.5,6.04,3.06,12.28,4.31,16.64,4.35,15.24,23.3,59.34,29.4,73.37Z" style="fill:#FFC73C;"></path></g></g></g></g><g><path d="M209.62,145.97c.14,.24,73.44,5.24,74.3,4.59,1.21-.92,2.28-65.12-6.9-84.41-2.29-4.83-12.32-9.4-21.06-1.92-25.38,21.72-46.83,80.88-46.34,81.74Z" style="fill:#FFC73C;"></path><g><g><path d="M272.71,75.91c-3.72,.46-10.81-4.66-12.82-10.13-.14-.38,.94-3.95,2.05-8.36,.66-2.68,1.33-5.67,1.75-8.45,.08-.57,16.79,6.84,16.79,6.84,0,0-2.58,5.57-3.28,10.41-.05,.41-.07,.79-.05,1.16,0,.05,0,.12,0,.19,.03,2.22-.45,7.84-4.43,8.33Z" style="fill: rgb(247, 169, 160);"></path><path d="M280.47,55.82s-2.58,5.57-3.28,10.41c-.03,.23-.04,.45-.05,.67-8.08-.49-12.26-7.51-14.34-13.26,.34-1.56,.65-3.15,.88-4.66,.09-.58,16.79,6.84,16.79,6.84Z" style="fill:#263238;"></path></g><g><path d="M262.27,25.28c-2.86,5.97-2.31,24.55,1.53,29.26,5.56,6.83,16.04,8.99,22.19,1.99,5.96-6.79,4.8-30.99,.39-35.41-6.5-6.51-19.88-4.65-24.11,4.16Z" style="fill: rgb(247, 169, 160);"></path><g><g><path d="M277.74,39.23s-.09,.07-.09,.12c.13,1.25,.06,2.7-1.04,3.19-.03,.02-.03,.08,.02,.07,1.37-.29,1.43-2.21,1.12-3.37Z" style="fill:#263238;"></path><path d="M276.53,38c-2.02-.01-1.9,4.03-.03,4.04,1.84,.01,1.72-4.03,.03-4.04Z" style="fill:#263238;"></path></g><g><path d="M285.13,38.75s.1,.06,.1,.11c0,1.25,.2,2.69,1.35,3.07,.04,.01,.03,.07,0,.07-1.39-.15-1.64-2.06-1.44-3.25Z" style="fill:#263238;"></path><path d="M286.21,37.41c2.01-.21,2.28,3.82,.42,4.02-1.83,.19-2.11-3.84-.42-4.02Z" style="fill:#263238;"></path></g><path d="M275.31,36.05c.56-.09,1.06-.26,1.61-.41,.62-.16,1.12-.23,1.56-.73,.24-.27,.2-.79-.04-1.04-.55-.59-1.36-.58-2.11-.41-.81,.18-1.39,.53-1.91,1.18-.5,.63,.15,1.53,.89,1.41Z" style="fill:#263238;"></path><path d="M287.57,35.13c-.56-.07-1.07-.24-1.62-.37-.62-.15-1.13-.2-1.58-.69-.24-.26-.21-.78,.02-1.04,.54-.6,1.34-.61,2.1-.46,.82,.16,1.41,.49,1.94,1.13,.51,.62-.11,1.53-.86,1.43Z" style="fill:#263238;"></path><path d="M276.92,50.88c.31,.28,.62,.68,1.07,.7,.44,.02,.94-.19,1.34-.35,.04-.02,.08,.02,.06,.06-.31,.49-.99,.81-1.57,.73-.57-.08-.86-.56-1.02-1.08-.02-.07,.07-.1,.12-.06Z" style="fill:#263238;"></path><path d="M278.13,47.09c.73,1.07,1.78,1.63,2.9,1.81,.5,.09,1.02,.09,1.53,.03,.1,0,.2-.02,.29-.04,.09-.01,.17-.03,.27-.05,.15-.03,.22-.15,.24-.29h0c0-.06,0-.09-.02-.14h0v-.12c0-.96-.14-2.43-.14-2.43,.36,.17,2.18,.92,2.13,.42-.37-4.16-.79-8.79-2.03-12.85-.03-.14-.24-.1-.23,.04,.2,4.01,1.1,7.96,1.37,11.99-.58-.2-1.53-.58-2.03-.55-.14,.04,.31,2.82,.28,3.26,0,0,0,.02,0,.05-1.61,.25-2.85-.2-4.45-1.24-.1-.07-.19,.02-.11,.12Z" style="fill:#263238;"></path><g><path d="M281.98,48.46s-.82,1.18-1.98,1.63c-.43,.17-.89,.24-1.38,.13-1.01-.23-1.06-1.15-.9-1.94,.13-.65,.41-1.21,.41-1.21,0,0,1.5,1.32,3.84,1.4Z" style="fill:#263238;"></path><path d="M280,50.09c-.43,.17-.89,.24-1.38,.13-1.01-.23-1.06-1.15-.9-1.94,1.07,.08,2.16,.77,2.28,1.81Z" style="fill:#ff99ba;"></path></g></g><path d="M260.72,42.54c2.68,.89,4.99-2.23,5.76-3.89,.78-1.66,.02-11.13,1.47-13.6s4.34-3.74,6.54-2.97c2.2,.77,4.94,3.85,6.6,3.78,1.66-.07,2.23-3.62,3.38-3.56,2.53,.12,4.89,6.49,5.2,9.28,0,0,.66-11.86-11.39-13.54-11.75-1.64-15.95,6.28-17.16,9.78-2.31,6.72-.41,14.72-.41,14.72Z" style="fill:#263238;"></path><g><path d="M286.86,21.1c-1.87-.06-11.74,2.3-15.8,5.14-4.06,2.84-10.65,10.9-10.99,11.33-.34,.42-5.77-15.52,6.88-21.26,13.78-6.25,19.91,4.79,19.91,4.79Z" style="fill:#FFC73C;"></path><g><path d="M260.7,36.74s6.37-13.39,10.7-17.05c4.33-3.65,14.93-7.41,22.3-5.84,5.74,1.22-5.7,10.66-5.7,10.66,0,0-.75-1.8-2.58-2.12-3.56-.62-9.59,1.68-12.9,3.61-4.16,2.43-11.82,10.73-11.82,10.73Z" style="fill:#FFC73C;"></path><path d="M260.7,36.74s6.37-13.39,10.7-17.05c4.33-3.65,14.93-7.41,22.3-5.84,5.74,1.22-5.7,10.66-5.7,10.66,0,0-.75-1.8-2.58-2.12-3.56-.62-9.59,1.68-12.9,3.61-4.16,2.43-11.82,10.73-11.82,10.73Z" style="opacity: .2;"></path></g></g><g><path d="M263.89,40.6s-3.33-6.4-6.18-5.29c-2.85,1.11-.89,10.02,2.08,11.59,2.97,1.57,4.48-1.15,4.48-1.15l-.38-5.15Z" style="fill: rgb(247, 169, 160);"></path><path d="M258.34,37.85s-.07,.06-.03,.08c2.07,1.18,2.96,3.36,3.49,5.57-.54-.9-1.37-1.46-2.56-.82-.06,.03-.02,.13,.04,.12,.92-.07,1.55,.17,2.06,.96,.36,.57,.57,1.25,.8,1.88,.08,.21,.44,.15,.4-.08,0-.02,0-.04-.01-.05,.42-2.78-1.23-6.98-4.19-7.65Z" style="fill:#263238;"></path></g></g></g><g><path d="M258.44,67.16c4.05,1.71,5.23,8.08,3.61,15.46-1.92,8.78-12.62,18.25-17.67,15.93-6.9-3.17-1.03-16.48,2.55-23.01,3.43-6.25,8.65-9.59,11.5-8.39Z" style="fill: rgb(247, 169, 160);"></path><g><path d="M252,78.45c3.39,27.08,12.23,52.46,19.89,55.21,11,3.95,33.29,3.8,47.49,1.4,4.17-.71-1.98-33.05-6.44-32.3-5.39,.91-28.16,4.65-28.71,4.57-1.16-.16-16.41-26.47-20-33.23-6.59-12.41-13.63-6.85-12.23,4.35Z" style="fill: rgb(247, 169, 160);"></path><g><path d="M354.62,98.46c1.7,3.07-.8,5.69-.8,5.69,0,0,2.48,1.29,3.33,3.84,.97,2.92-3.18,5.72-3.18,5.72,0,0,2.25,1.82,2.87,4.61,.65,2.89-3.14,6.32-3.14,6.32,0,0,1.16,2.85-.03,5.64-2.03,4.78-9.85,6.02-14.82,6.86-4.97,.84-19.84-1.43-22.72-1.58l-5.66-31.84s21.2-10.1,27.19-10.26c5.04-.13,15.06,1.56,16.97,5Z" style="fill: rgb(247, 169, 160);"></path><g><path d="M353.51,103.69c-5.39-1.14-10.83-.63-16.28-.43-.12,0-.11,.19,0,.19,5.42-.26,10.83,.55,16.25,.5,.15,0,.17-.23,.02-.26Z" style="fill:#263238;"></path><path d="M353.8,113.32c-1.23-.22-2.52-.04-3.76,.07-1.33,.12-2.65,.26-3.97,.41-2.65,.32-5.29,.7-7.91,1.16-.12,.02-.11,.2,0,.19,2.64-.31,5.28-.59,7.93-.79,1.33-.1,2.65-.19,3.98-.27,1.23-.08,2.54-.05,3.74-.4,.18-.05,.17-.33-.02-.36Z" style="fill:#263238;"></path><path d="M353.59,124.65c-1.06-.24-2.32,.09-3.38,.24-1.2,.17-2.41,.33-3.61,.49-2.41,.31-4.82,.63-7.24,.86-.12,.01-.11,.2,0,.19,2.46-.22,4.92-.41,7.38-.65,1.21-.12,2.41-.25,3.62-.38,1.02-.11,2.32-.14,3.24-.63,.05-.03,.03-.11-.02-.12Z" style="fill:#263238;"></path></g></g></g><path d="M252.59,86.53c.16,.37,.32,.75,.48,1.13-.34-1.92-.61-3.84-.79-5.78,0-.04,.06-.05,.07,0,.53,2.15,1.03,4.3,1.44,6.48,.2,1.03,.77,4.84,.91,6.1,.02,.14-.25,.29-.28,.16-.23-1.1-.97-4.82-1.15-5.78-.14-.27-.28-.53-.4-.81-.19-.46-.37-.91-.53-1.38-.31-.93-.59-1.88-.87-2.82,0-.01,.02-.02,.02,0,.32,.92,.7,1.82,1.09,2.72Z" style="fill:#263238;"></path></g></g></g></g></svg>